<svg xmlns="http://www.w3.org/2000/svg" viewBox="0 0 160 160" width="160" height="160" role="img" aria-label="Rango esmeralda"><defs><linearGradient id="g_esmeralda" x1="0" y1="0" x2="0" y2="1"><stop offset="0" stop-color="#c9f7da"/><stop offset="1" stop-color="#13894f"/></linearGradient></defs><ellipse cx="60.0" cy="138.0" rx="5.5" ry="10" fill="#7fd8a0" stroke="#1f6b3e" stroke-width="1.5" transform="rotate(35 60.0 138.0)"/><ellipse cx="51.3" cy="126.4" rx="5.5" ry="10" fill="#7fd8a0" stroke="#1f6b3e" stroke-width="1.5" transform="rotate(43 51.3 126.4)"/><ellipse cx="43.5" cy="114.8" rx="5.5" ry="10" fill="#7fd8a0" stroke="#1f6b3e" stroke-width="1.5" transform="rotate(51 43.5 114.8)"/><ellipse cx="37.3" cy="103.2" rx="5.5" ry="10" fill="#7fd8a0" stroke="#1f6b3e" stroke-width="1.5" transform="rotate(59 37.3 103.2)"/><ellipse cx="33.4" cy="91.6" rx="5.5" ry="10" fill="#7fd8a0" stroke="#1f6b3e" stroke-width="1.5" transform="rotate(67 33.4 91.6)"/><ellipse cx="32.0" cy="80.0" rx="5.5" ry="10" fill="#7fd8a0" stroke="#1f6b3e" stroke-width="1.5" transform="rotate(75 32.0 80.0)"/><ellipse cx="100.0" cy="138.0" rx="5.5" ry="10" fill="#7fd8a0" stroke="#1f6b3e" stroke-width="1.5" transform="rotate(-35 100.0 138.0)"/><ellipse cx="108.7" cy="126.4" rx="5.5" ry="10" fill="#7fd8a0" stroke="#1f6b3e" stroke-width="1.5" transform="rotate(-43 108.7 126.4)"/><ellipse cx="116.5" cy="114.8" rx="5.5" ry="10" fill="#7fd8a0" stroke="#1f6b3e" stroke-width="1.5" transform="rotate(-51 116.5 114.8)"/><ellipse cx="122.7" cy="103.2" rx="5.5" ry="10" fill="#7fd8a0" stroke="#1f6b3e" stroke-width="1.5" transform="rotate(-59 122.7 103.2)"/><ellipse cx="126.6" cy="91.6" rx="5.5" ry="10" fill="#7fd8a0" stroke="#1f6b3e" stroke-width="1.5" transform="rotate(-67 126.6 91.6)"/><ellipse cx="128.0" cy="80.0" rx="5.5" ry="10" fill="#7fd8a0" stroke="#1f6b3e" stroke-width="1.5" transform="rotate(-75 128.0 80.0)"/><path d="M42 52 L22 46 L8 60 L6 78 L16 70 L26 70 L34 73 L20 78 L13 90 L14 98 L24 89 L33 86 L42 88 Z" fill="url(#g_esmeralda)" stroke="#0b5a33" stroke-width="2.5" stroke-linejoin="round"/><path d="M118 52 L138 46 L152 60 L154 78 L144 70 L134 70 L126 73 L140 78 L147 90 L146 98 L136 89 L127 86 L118 88 Z" fill="url(#g_esmeralda)" stroke="#0b5a33" stroke-width="2.5" stroke-linejoin="round"/><path d="M80 22 L118 35 V72 C118 102 101 120 80 130 C59 120 42 102 42 72 V35 Z" fill="url(#g_esmeralda)" stroke="#0b5a33" stroke-width="4" stroke-linejoin="round"/><path d="M80 30 L110 40 V60 C96 54 64 54 50 60 V40 Z" fill="#ffffff" opacity="0.18"/><polygon points="71,56 89,56 98,66 98,86 89,96 71,96 62,86 62,66" fill="#ffffff" opacity="0.95"/><polygon points="74,62 86,62 92,69 92,83 86,90 74,90 68,83 68,69" fill="none" stroke="#13894f" stroke-width="2" opacity="0.6"/></svg>