<svg xmlns="http://www.w3.org/2000/svg" viewBox="0 0 200 200" width="200" height="200" role="img" aria-label="Rango esmeralda I"><style>.tw{animation:tw 2.2s ease-in-out infinite;transform-box:fill-box;transform-origin:center}@keyframes tw{0%,100%{opacity:.1;transform:scale(.5)}50%{opacity:1;transform:scale(1)}}.sh{animation:sh 3.4s ease-in-out infinite}@keyframes sh{0%{transform:translateX(-170px)}60%,100%{transform:translateX(170px)}}.au{animation:au 2.6s ease-in-out infinite;transform-origin:100px 105px}@keyframes au{0%,100%{opacity:.7;transform:scale(.95)}50%{opacity:1;transform:scale(1.04)}}.fl{animation:fl .9s ease-in-out infinite alternate;transform-box:fill-box;transform-origin:50% 100%}@keyframes fl{from{transform:scaleY(.86) skewX(-3deg)}to{transform:scaleY(1.08) skewX(3deg)}}@media (prefers-reduced-motion:reduce){.tw,.sh,.au,.fl{animation:none}}</style><defs><linearGradient id="esmeralda1_rim" x1="0" y1="0" x2="0" y2="1"><stop offset="0" stop-color="#c9ffe0"/><stop offset="0.35" stop-color="#1fae64"/><stop offset="0.55" stop-color="#c9ffe0"/><stop offset="1" stop-color="#0a5a31"/></linearGradient><linearGradient id="esmeralda1_field" x1="0" y1="0" x2="0" y2="1"><stop offset="0" stop-color="#1fae64"/><stop offset="0.5" stop-color="#0a5a31"/><stop offset="1" stop-color="#063b20"/></linearGradient><linearGradient id="esmeralda1_plate" x1="0" y1="0" x2="0" y2="1"><stop offset="0" stop-color="#0a5a31"/><stop offset="0.5" stop-color="#063b20"/><stop offset="1" stop-color="#0a5a31"/></linearGradient><linearGradient id="esmeralda1_motif" x1="0" y1="0" x2="0" y2="1"><stop offset="0" stop-color="#ffffff"/><stop offset="0.4" stop-color="#d9ffe9"/><stop offset="1" stop-color="#1fae64"/></linearGradient><linearGradient id="esmeralda1_gold" x1="0" y1="0" x2="0" y2="1"><stop offset="0" stop-color="#fff3c4"/><stop offset="0.45" stop-color="#e6b52c"/><stop offset="1" stop-color="#8f6406"/></linearGradient><clipPath id="esmeralda1_clip"><path d="M56 50 Q100 40 144 50 L151 56 L150 104 C148 137 127 155 100 167 C73 155 52 137 50 104 L49 56 Z"/></clipPath><radialGradient id="esmeralda1_aura"><stop offset="0" stop-color="#33e08a" stop-opacity=".85"/><stop offset=".55" stop-color="#33e08a" stop-opacity=".25"/><stop offset="1" stop-color="#33e08a" stop-opacity="0"/></radialGradient><linearGradient id="esmeralda1_shine" x1="0" y1="0" x2="1" y2="0"><stop offset="0" stop-color="#fff" stop-opacity="0"/><stop offset=".5" stop-color="#fff" stop-opacity=".65"/><stop offset="1" stop-color="#fff" stop-opacity="0"/></linearGradient><linearGradient id="esmeralda1_fire" x1="0" y1="1" x2="0" y2="0"><stop offset="0" stop-color="#ff3d00"/><stop offset=".5" stop-color="#ff8f00"/><stop offset="1" stop-color="#ffe082"/></linearGradient></defs><path d="M78 184 Q37.300000000000004 160 39.2 96" fill="none" stroke="#5c3f00" stroke-width="2.5"/><ellipse cx="76.0" cy="182.0" rx="6" ry="12.5" fill="url(#esmeralda1_gold)" stroke="#5c3f00" stroke-width="1.4" transform="rotate(28 76.0 182.0)"/><ellipse cx="65.7" cy="167.7" rx="6" ry="12.5" fill="url(#esmeralda1_gold)" stroke="#5c3f00" stroke-width="1.4" transform="rotate(37 65.7 167.7)"/><ellipse cx="56.1" cy="153.3" rx="6" ry="12.5" fill="url(#esmeralda1_gold)" stroke="#5c3f00" stroke-width="1.4" transform="rotate(45 56.1 153.3)"/><ellipse cx="47.8" cy="139.0" rx="6" ry="12.5" fill="url(#esmeralda1_gold)" stroke="#5c3f00" stroke-width="1.4" transform="rotate(54 47.8 139.0)"/><ellipse cx="41.4" cy="124.7" rx="6" ry="12.5" fill="url(#esmeralda1_gold)" stroke="#5c3f00" stroke-width="1.4" transform="rotate(63 41.4 124.7)"/><ellipse cx="37.5" cy="110.3" rx="6" ry="12.5" fill="url(#esmeralda1_gold)" stroke="#5c3f00" stroke-width="1.4" transform="rotate(71 37.5 110.3)"/><ellipse cx="36.1" cy="96.0" rx="6" ry="12.5" fill="url(#esmeralda1_gold)" stroke="#5c3f00" stroke-width="1.4" transform="rotate(80 36.1 96.0)"/><path d="M122 184 Q162.7 160 160.8 96" fill="none" stroke="#5c3f00" stroke-width="2.5"/><ellipse cx="124.0" cy="182.0" rx="6" ry="12.5" fill="url(#esmeralda1_gold)" stroke="#5c3f00" stroke-width="1.4" transform="rotate(-28 124.0 182.0)"/><ellipse cx="134.3" cy="167.7" rx="6" ry="12.5" fill="url(#esmeralda1_gold)" stroke="#5c3f00" stroke-width="1.4" transform="rotate(-37 134.3 167.7)"/><ellipse cx="143.9" cy="153.3" rx="6" ry="12.5" fill="url(#esmeralda1_gold)" stroke="#5c3f00" stroke-width="1.4" transform="rotate(-45 143.9 153.3)"/><ellipse cx="152.2" cy="139.0" rx="6" ry="12.5" fill="url(#esmeralda1_gold)" stroke="#5c3f00" stroke-width="1.4" transform="rotate(-54 152.2 139.0)"/><ellipse cx="158.6" cy="124.7" rx="6" ry="12.5" fill="url(#esmeralda1_gold)" stroke="#5c3f00" stroke-width="1.4" transform="rotate(-63 158.6 124.7)"/><ellipse cx="162.5" cy="110.3" rx="6" ry="12.5" fill="url(#esmeralda1_gold)" stroke="#5c3f00" stroke-width="1.4" transform="rotate(-71 162.5 110.3)"/><ellipse cx="163.9" cy="96.0" rx="6" ry="12.5" fill="url(#esmeralda1_gold)" stroke="#5c3f00" stroke-width="1.4" transform="rotate(-80 163.9 96.0)"/><path d="M50 40 Q100 28 150 40 L162 48 L160 104 C158 144 132 166 100 180 C68 166 42 144 40 104 L38 48 Z" transform="translate(0 5)" fill="#000" opacity=".35"/><path d="M50 40 Q100 28 150 40 L162 48 L160 104 C158 144 132 166 100 180 C68 166 42 144 40 104 L38 48 Z" fill="url(#esmeralda1_rim)" stroke="#063b20" stroke-width="3" stroke-linejoin="round"/><path d="M56 50 Q100 40 144 50 L151 56 L150 104 C148 137 127 155 100 167 C73 155 52 137 50 104 L49 56 Z" fill="url(#esmeralda1_field)" stroke="#0a5a31" stroke-width="2"/><g clip-path="url(#esmeralda1_clip)"><path d="M40 40 L160 40 L160 82 C130 70 70 70 40 88 Z" fill="#fff" opacity=".12"/></g><g transform="translate(100 112) scale(.82) translate(-100 -112)"><path d="M95 137 L91 162 L93 174" fill="none" stroke="#063b20" stroke-width="11.5" stroke-linecap="round" stroke-linejoin="round"/><path d="M105 137 L109 162 L107 174" fill="none" stroke="#063b20" stroke-width="11.5" stroke-linecap="round" stroke-linejoin="round"/><path d="M95 137 L91 162 L93 174" fill="none" stroke="url(#esmeralda1_motif)" stroke-width="9" stroke-linecap="round" stroke-linejoin="round"/><path d="M105 137 L109 162 L107 174" fill="none" stroke="url(#esmeralda1_motif)" stroke-width="9" stroke-linecap="round" stroke-linejoin="round"/><path d="M85 105 L70 105 L69 86" fill="none" stroke="#063b20" stroke-width="10.5" stroke-linecap="round" stroke-linejoin="round"/><path d="M85 105 L70 105 L69 86" fill="none" stroke="url(#esmeralda1_motif)" stroke-width="8" stroke-linecap="round" stroke-linejoin="round"/><ellipse cx="76" cy="101" rx="7" ry="5.5" fill="url(#esmeralda1_motif)" stroke="#063b20" stroke-width="1.3"/><circle cx="69" cy="83" r="5" fill="url(#esmeralda1_motif)" stroke="#063b20" stroke-width="1.3"/><path d="M115 105 L130 105 L131 86" fill="none" stroke="#063b20" stroke-width="10.5" stroke-linecap="round" stroke-linejoin="round"/><path d="M115 105 L130 105 L131 86" fill="none" stroke="url(#esmeralda1_motif)" stroke-width="8" stroke-linecap="round" stroke-linejoin="round"/><ellipse cx="124" cy="101" rx="7" ry="5.5" fill="url(#esmeralda1_motif)" stroke="#063b20" stroke-width="1.3"/><circle cx="131" cy="83" r="5" fill="url(#esmeralda1_motif)" stroke="#063b20" stroke-width="1.3"/><circle cx="100" cy="92" r="7.5" fill="url(#esmeralda1_motif)" stroke="#063b20" stroke-width="1.5"/><path d="M89 101 L111 101 L117 105 L112 126 L108 138 L92 138 L88 126 L83 105 Z" fill="url(#esmeralda1_motif)" stroke="#063b20" stroke-width="1.5" stroke-linejoin="round"/><path d="M100 108 V134 M93 116 H107 M94 123 H106 M88 108 Q94 113 100 109 Q106 113 112 108" fill="none" stroke="#063b20" stroke-width="1.3" opacity=".6"/></g><path d="M46 60 H154 L162 69 L154 78 H46 L38 69 Z" fill="url(#esmeralda1_plate)" stroke="#c9ffe0" stroke-width="1.6"/><text x="100" y="73.1" text-anchor="middle" font-family="Impact, 'Arial Black', 'Segoe UI Black', sans-serif" font-weight="900" font-size="11.5" letter-spacing="1.5" fill="#eafff3" stroke="#063b20" stroke-width=".6" paint-order="stroke">ESMERALDA</text><polygon points="100,39 105.95,44.6 103.85,53 96.15,53 94.05,44.6" fill="#3ddc84" stroke="#0b5a31" stroke-width="1.6"/><path d="M94.05 44.6 H105.95 M100 39 L97.9 44.6 L100 53 L102.1 44.6 Z" fill="none" stroke="#fff" stroke-width="1" opacity=".7"/><circle cx="97.55" cy="42.85" r="1.3" fill="#fff" opacity=".9"/><polygon points="100.0,146.0 101.6,149.8 105.7,150.1 102.6,152.8 103.5,156.9 100.0,154.7 96.5,156.9 97.4,152.8 94.3,150.1 98.4,149.8" fill="url(#esmeralda1_gold)" stroke="#5c3f00" stroke-width="1"/></svg>