<svg xmlns="http://www.w3.org/2000/svg" viewBox="0 0 256 256"><defs><filter id="ds" x="-20%" y="-20%" width="140%" height="140%"><feDropShadow dx="0" dy="3" stdDeviation="3" flood-color="#000" flood-opacity=".45"/></filter><radialGradient id="r1" cx="0.5" cy="0.5" r="0.5"><stop offset="0" stop-color="#c9d2dc" stop-opacity="0.6"/><stop offset="0.45" stop-color="#c9d2dc" stop-opacity="0.24"/><stop offset="1" stop-color="#c9d2dc" stop-opacity="0"/></radialGradient><radialGradient id="r2" cx="0.42" cy="0.3" r="0.85"><stop offset="0" stop-color="#4a5058"/><stop offset="0.6" stop-color="#2a2e34"/><stop offset="1" stop-color="#16181b"/></radialGradient><linearGradient id="l3" x1="0" y1="0" x2="1" y2="1"><stop offset="0" stop-color="#a7afb8"/><stop offset="0.22" stop-color="#565d66"/><stop offset="0.45" stop-color="#24282d"/><stop offset="0.62" stop-color="#717983"/><stop offset="0.8" stop-color="#ccd3da"/><stop offset="1" stop-color="#2a2e33"/></linearGradient><linearGradient id="l4" x1="0" y1="0" x2="0" y2="1"><stop offset="0" stop-color="#000" stop-opacity="0.6"/><stop offset="0.5" stop-color="#000" stop-opacity="0.1"/><stop offset="1" stop-color="#fff" stop-opacity="0.45"/></linearGradient><linearGradient id="l5" x1="0" y1="0" x2="1" y2="0"><stop offset="0" stop-color="#24282d"/><stop offset="0.35" stop-color="#565d66"/><stop offset="0.55" stop-color="#ccd3da"/><stop offset="0.8" stop-color="#565d66"/><stop offset="1" stop-color="#24282d"/></linearGradient><linearGradient id="l6" x1="0" y1="0" x2="0" y2="1"><stop offset="0" stop-color="#ffffff"/><stop offset="0.22" stop-color="#bcc4cd"/><stop offset="0.45" stop-color="#6c7581"/><stop offset="0.62" stop-color="#d2d9e0"/><stop offset="0.8" stop-color="#ffffff"/><stop offset="1" stop-color="#78818c"/></linearGradient><linearGradient id="l7" x1="0" y1="0" x2="1" y2="1"><stop offset="0" stop-color="#a7afb8"/><stop offset="0.22" stop-color="#565d66"/><stop offset="0.45" stop-color="#24282d"/><stop offset="0.62" stop-color="#717983"/><stop offset="0.8" stop-color="#ccd3da"/><stop offset="1" stop-color="#2a2e33"/></linearGradient><radialGradient id="r8" cx="0.5" cy="0.5" r="0.5"><stop offset="0" stop-color="#fff" stop-opacity="0.3"/><stop offset="0.6" stop-color="#fff" stop-opacity="0.075"/><stop offset="1" stop-color="#fff" stop-opacity="0"/></radialGradient><clipPath id="c9"><path d="M66 46H190V112C190 160 160 188 128 202C96 188 66 160 66 112Z"/></clipPath><linearGradient id="l10" x1="0" y1="0" x2="0" y2="1"><stop offset="0" stop-color="#7a2e22"/><stop offset="1" stop-color="#4a1610"/></linearGradient><linearGradient id="l11" x1="0" y1="0" x2="0" y2="1"><stop offset="0" stop-color="#a7afb8"/><stop offset="0.22" stop-color="#565d66"/><stop offset="0.45" stop-color="#24282d"/><stop offset="0.62" stop-color="#717983"/><stop offset="0.8" stop-color="#ccd3da"/><stop offset="1" stop-color="#2a2e33"/></linearGradient></defs><circle cx="128" cy="118" r="126" fill="url(#r1)"/><g transform="translate(128 124) scale(0.8) translate(-128 -124)"><path d="M66 46H190V112C190 160 160 188 128 202C96 188 66 160 66 112Z" fill="url(#l3)" filter="url(#ds)"/><path d="M66 46H190V112C190 160 160 188 128 202C96 188 66 160 66 112Z" fill="none" stroke="#000" stroke-opacity=".55" stroke-width="1.4"/><g transform="translate(128 124) scale(0.9) translate(-128 -124)"><path d="M66 46H190V112C190 160 160 188 128 202C96 188 66 160 66 112Z" fill="url(#r2)"/><path d="M66 46H190V112C190 160 160 188 128 202C96 188 66 160 66 112Z" fill="none" stroke="url(#l4)" stroke-width="3.2"/></g><g transform="translate(128 124) scale(0.95) translate(-128 -124)"><path d="M66 46H190V112C190 160 160 188 128 202C96 188 66 160 66 112Z" fill="none" stroke="#000" stroke-opacity=".5" stroke-width="5.4" stroke-linecap="round" stroke-dasharray="0.1 13" transform="translate(.6 .9)"/><path d="M66 46H190V112C190 160 160 188 128 202C96 188 66 160 66 112Z" fill="none" stroke="#c6cdd4" stroke-width="4.6" stroke-linecap="round" stroke-dasharray="0.1 13"/></g><g transform="translate(128 124) scale(0.8300000000000001) translate(-128 -124)"><path d="M66 46H190V112C190 160 160 188 128 202C96 188 66 160 66 112Z" fill="none" stroke="#ccd3da" stroke-opacity=".8" stroke-width="1.6"/></g><path d="M49.7 124 L56.2 124 L62.8 124 L69.3 124 L75.8 124 L82.3 124 L88.8 124 L95.4 124 L101.9 124 L108.4 124 L115 124 L121.5 124 L128 124 L134.5 124 L141.1 124 L147.6 124 L154.1 124 L160.6 124 L167.2 124 L173.7 124 L180.2 124 L186.7 124 L193.2 124 L199.8 124 L206.3 124" fill="none" stroke="#000" stroke-opacity=".5" stroke-width="7" transform="translate(1 2.4)"/><path d="M49.7 124 L56.2 124 L62.8 124 L69.3 124 L75.8 124 L82.3 124 L88.8 124 L95.4 124 L101.9 124 L108.4 124 L115 124 L121.5 124 L128 124 L134.5 124 L141.1 124 L147.6 124 L154.1 124 L160.6 124 L167.2 124 L173.7 124 L180.2 124 L186.7 124 L193.2 124 L199.8 124 L206.3 124" fill="none" stroke="#17181b" stroke-width="6.4" stroke-linecap="round"/><path d="M49.7 124 L56.2 124 L62.8 124 L69.3 124 L75.8 124 L82.3 124 L88.8 124 L95.4 124 L101.9 124 L108.4 124 L115 124 L121.5 124 L128 124 L134.5 124 L141.1 124 L147.6 124 L154.1 124 L160.6 124 L167.2 124 L173.7 124 L180.2 124 L186.7 124 L193.2 124 L199.8 124 L206.3 124" fill="none" stroke="#bcc4cd" stroke-width="4.6" stroke-linecap="round"/><path d="M49.7 124 L56.2 124 L62.8 124 L69.3 124 L75.8 124 L82.3 124 L88.8 124 L95.4 124 L101.9 124 L108.4 124 L115 124 L121.5 124 L128 124 L134.5 124 L141.1 124 L147.6 124 L154.1 124 L160.6 124 L167.2 124 L173.7 124 L180.2 124 L186.7 124 L193.2 124 L199.8 124 L206.3 124" fill="none" stroke="#ffffff" stroke-opacity=".75" stroke-width="1.4" transform="translate(0 -1.2)"/><g transform="translate(70.5 124) rotate(-0)"><rect x="-0.8" y="-4.1" width="4" height="13" rx="1" fill="#000" opacity=".5"/><rect x="-2" y="-6.5" width="4" height="13" rx="1" fill="url(#l6)" stroke="#000" stroke-opacity=".7" stroke-width=".9"/><rect x="-1" y="-4.5" width="1.3" height="9" rx=".6" fill="#fff" opacity=".5"/></g><g transform="translate(62.8 124) rotate(-0)"><rect x="-4" y="-29.6" width="10.5" height="64" rx="2.8" fill="#000" opacity=".5"/><rect x="-5.2" y="-32" width="10.5" height="64" rx="2.8" fill="url(#l5)" stroke="#000" stroke-opacity=".7" stroke-width=".9"/><rect x="-4.2" y="-30" width="1.3" height="60" rx=".6" fill="#fff" opacity=".5"/></g><g transform="translate(53.7 124) rotate(-0)"><rect x="-1.3" y="-2.1" width="5" height="9" rx="1" fill="#000" opacity=".5"/><rect x="-2.5" y="-4.5" width="5" height="9" rx="1" fill="url(#l6)" stroke="#000" stroke-opacity=".7" stroke-width=".9"/><rect x="-1.5" y="-2.5" width="1.3" height="5" rx=".6" fill="#fff" opacity=".5"/></g><g transform="translate(185.5 124) rotate(0)"><rect x="-0.8" y="-4.1" width="4" height="13" rx="1" fill="#000" opacity=".5"/><rect x="-2" y="-6.5" width="4" height="13" rx="1" fill="url(#l6)" stroke="#000" stroke-opacity=".7" stroke-width=".9"/><rect x="-1" y="-4.5" width="1.3" height="9" rx=".6" fill="#fff" opacity=".5"/></g><g transform="translate(193.2 124) rotate(0)"><rect x="-4" y="-29.6" width="10.5" height="64" rx="2.8" fill="#000" opacity=".5"/><rect x="-5.2" y="-32" width="10.5" height="64" rx="2.8" fill="url(#l5)" stroke="#000" stroke-opacity=".7" stroke-width=".9"/><rect x="-4.2" y="-30" width="1.3" height="60" rx=".6" fill="#fff" opacity=".5"/></g><g transform="translate(202.3 124) rotate(0)"><rect x="-1.3" y="-2.1" width="5" height="9" rx="1" fill="#000" opacity=".5"/><rect x="-2.5" y="-4.5" width="5" height="9" rx="1" fill="url(#l6)" stroke="#000" stroke-opacity=".7" stroke-width=".9"/><rect x="-1.5" y="-2.5" width="1.3" height="5" rx=".6" fill="#fff" opacity=".5"/></g><path d="M151 99.3A31 31 0 1 0 159 121H131" fill="none" stroke="#000" stroke-opacity=".55" stroke-width="16" transform="translate(1.2 2.2)"/><path d="M151 99.3A31 31 0 1 0 159 121H131" fill="none" stroke="#24282d" stroke-width="15.4"/><path d="M151 99.3A31 31 0 1 0 159 121H131" fill="none" stroke="url(#l7)" stroke-width="13"/><path d="M151 99.3A31 31 0 1 0 159 121H131" fill="none" stroke="#ccd3da" stroke-opacity=".55" stroke-width="1.6" transform="translate(-1.6 -1.6)"/><g clip-path="url(#c9)"><ellipse cx="100" cy="70" rx="70" ry="58" fill="url(#r8)"/></g><path d="M60 53Q60 60 67 60Q60 60 60 67Q60 60 53 60Q60 60 60 53Z" fill="#fff" opacity=".9"/><path d="M200 73Q200 78 205 78Q200 78 200 83Q200 78 195 78Q200 78 200 73Z" fill="#fff" opacity=".9"/><path d="M52 165Q52 170 57 170Q52 170 52 175Q52 170 47 170Q52 170 52 165Z" fill="#fff" opacity=".9"/><path d="M206 169Q206 176 213 176Q206 176 206 183Q206 176 199 176Q206 176 206 169Z" fill="#fff" opacity=".9"/></g><g filter="url(#ds)"><path d="M58 182.4L32 186.4L42 195.4L30 206.4L60 204.4Z" fill="url(#l10)" stroke="#000" stroke-opacity=".5" stroke-width="1"/><path d="M198 182.4L224 186.4L214 195.4L226 206.4L196 204.4Z" fill="url(#l10)" stroke="#000" stroke-opacity=".5" stroke-width="1"/><path d="M54 198.4L60 204.4L58 196.4Z" fill="#2a0a06"/><path d="M202 198.4L196 204.4L198 196.4Z" fill="#2a0a06"/><path d="M54 178.4Q128 196.4 202 178.4L202 198.4Q128 216.4 54 198.4Z" fill="url(#l10)" stroke="#000" stroke-opacity=".55" stroke-width="1.1"/><path d="M58 181.9Q128 199.4 198 181.9" fill="none" stroke="#fff" stroke-opacity=".25" stroke-width="1"/></g><g transform="translate(0.8 0.96)" fill="#000" opacity="0.6"><rect x="117.3" y="189.9" width="3.4" height="13"/><rect x="115" y="189.9" width="8" height="1.8" rx=".6"/><rect x="115" y="201.1" width="8" height="1.8" rx=".6"/><rect x="126.3" y="189.9" width="3.4" height="13"/><rect x="124" y="189.9" width="8" height="1.8" rx=".6"/><rect x="124" y="201.1" width="8" height="1.8" rx=".6"/><rect x="135.3" y="189.9" width="3.4" height="13"/><rect x="133" y="189.9" width="8" height="1.8" rx=".6"/><rect x="133" y="201.1" width="8" height="1.8" rx=".6"/></g><g transform="translate(-0.48 -0.5599999999999999)" fill="#fff" opacity="0.25"><rect x="117.3" y="189.9" width="3.4" height="13"/><rect x="115" y="189.9" width="8" height="1.8" rx=".6"/><rect x="115" y="201.1" width="8" height="1.8" rx=".6"/><rect x="126.3" y="189.9" width="3.4" height="13"/><rect x="124" y="189.9" width="8" height="1.8" rx=".6"/><rect x="124" y="201.1" width="8" height="1.8" rx=".6"/><rect x="135.3" y="189.9" width="3.4" height="13"/><rect x="133" y="189.9" width="8" height="1.8" rx=".6"/><rect x="133" y="201.1" width="8" height="1.8" rx=".6"/></g><g fill="url(#l11)"><rect x="117.3" y="189.9" width="3.4" height="13"/><rect x="115" y="189.9" width="8" height="1.8" rx=".6"/><rect x="115" y="201.1" width="8" height="1.8" rx=".6"/><rect x="126.3" y="189.9" width="3.4" height="13"/><rect x="124" y="189.9" width="8" height="1.8" rx=".6"/><rect x="124" y="201.1" width="8" height="1.8" rx=".6"/><rect x="135.3" y="189.9" width="3.4" height="13"/><rect x="133" y="189.9" width="8" height="1.8" rx=".6"/><rect x="133" y="201.1" width="8" height="1.8" rx=".6"/></g></svg>