<svg xmlns="http://www.w3.org/2000/svg" viewBox="0 0 256 256"><defs><filter id="ds" x="-20%" y="-20%" width="140%" height="140%"><feDropShadow dx="0" dy="3" stdDeviation="3" flood-color="#000" flood-opacity=".45"/></filter><linearGradient id="l1" x1="0" y1="0" x2="1" y2="1"><stop offset="0" stop-color="#e4b23a"/><stop offset="1" stop-color="#8a5a0c"/></linearGradient><linearGradient id="l2" x1="0" y1="0" x2="1" y2="1"><stop offset="0" stop-color="#fff6cc"/><stop offset="0.6" stop-color="#e4b23a"/><stop offset="1" stop-color="#8a5a0c"/></linearGradient><radialGradient id="r3" cx="0.42" cy="0.3" r="0.85"><stop offset="0" stop-color="#7a4e0c"/><stop offset="0.6" stop-color="#4a2c04"/><stop offset="1" stop-color="#221402"/></radialGradient><linearGradient id="l4" x1="0" y1="0" x2="1" y2="1"><stop offset="0" stop-color="#fff3bf"/><stop offset="0.22" stop-color="#e4b23a"/><stop offset="0.45" stop-color="#8a5a0c"/><stop offset="0.62" stop-color="#d99d26"/><stop offset="0.8" stop-color="#fff6cc"/><stop offset="1" stop-color="#7a4d08"/></linearGradient><linearGradient id="l5" x1="0" y1="0" x2="0" y2="1"><stop offset="0" stop-color="#000" stop-opacity="0.6"/><stop offset="0.5" stop-color="#000" stop-opacity="0.1"/><stop offset="1" stop-color="#fff" stop-opacity="0.45"/></linearGradient><linearGradient id="l6" x1="0" y1="0" x2="0" y2="1"><stop offset="0" stop-color="#fff3bf"/><stop offset="0.22" stop-color="#e4b23a"/><stop offset="0.45" stop-color="#8a5a0c"/><stop offset="0.62" stop-color="#d99d26"/><stop offset="0.8" stop-color="#fff6cc"/><stop offset="1" stop-color="#7a4d08"/></linearGradient><linearGradient id="l7" x1="0" y1="0" x2="0" y2="1"><stop offset="0" stop-color="#fff6cc"/><stop offset="0.5" stop-color="#e4b23a"/><stop offset="1" stop-color="#8a5a0c"/></linearGradient><linearGradient id="l8" x1="0" y1="0" x2="0" y2="1"><stop offset="0" stop-color="#fff3bf"/><stop offset="0.22" stop-color="#e4b23a"/><stop offset="0.45" stop-color="#8a5a0c"/><stop offset="0.62" stop-color="#d99d26"/><stop offset="0.8" stop-color="#fff6cc"/><stop offset="1" stop-color="#7a4d08"/></linearGradient><linearGradient id="l9" x1="0" y1="0" x2="0" y2="1"><stop offset="0" stop-color="#fff6cc"/><stop offset="0.5" stop-color="#e4b23a"/><stop offset="1" stop-color="#8a5a0c"/></linearGradient><radialGradient id="r10" cx="0.5" cy="0.5" r="0.5"><stop offset="0" stop-color="#fff" stop-opacity="0.3"/><stop offset="0.6" stop-color="#fff" stop-opacity="0.075"/><stop offset="1" stop-color="#fff" stop-opacity="0"/></radialGradient><clipPath id="c11"><path d="M66 46H190V112C190 160 160 188 128 202C96 188 66 160 66 112Z"/></clipPath><linearGradient id="l12" x1="0" y1="0" x2="0" y2="1"><stop offset="0" stop-color="#fff3bf"/><stop offset="0.22" stop-color="#e4b23a"/><stop offset="0.45" stop-color="#8a5a0c"/><stop offset="0.62" stop-color="#d99d26"/><stop offset="0.8" stop-color="#fff6cc"/><stop offset="1" stop-color="#7a4d08"/></linearGradient><linearGradient id="l13" x1="0" y1="0" x2="0" y2="1"><stop offset="0" stop-color="#24439a"/><stop offset="1" stop-color="#132a66"/></linearGradient><linearGradient id="l14" x1="0" y1="0" x2="0" y2="1"><stop offset="0" stop-color="#fff3bf"/><stop offset="0.22" stop-color="#e4b23a"/><stop offset="0.45" stop-color="#8a5a0c"/><stop offset="0.62" stop-color="#d99d26"/><stop offset="0.8" stop-color="#fff6cc"/><stop offset="1" stop-color="#7a4d08"/></linearGradient></defs><g transform="translate(128 124) scale(0.88) translate(-128 -124)"><g filter="url(#ds)"><g transform="translate(176 84) rotate(12)"><path d="M0 -4.7C12.7 -9 31 -5.7 36.4 0C29.1 4.7 12.7 6.2 0 4.7Z" fill="url(#l1)" stroke="#000" stroke-opacity=".55" stroke-width=".8"/><path d="M2 0L29.1 -0.9" stroke="#fff" stroke-opacity=".3" stroke-width=".7"/></g><g transform="translate(176 84) rotate(-11)"><path d="M0 -4.9C13.3 -9.4 32.3 -5.9 38 0C30.4 4.9 13.3 6.4 0 4.9Z" fill="url(#l1)" stroke="#000" stroke-opacity=".55" stroke-width=".8"/><path d="M2 0L30.4 -1" stroke="#fff" stroke-opacity=".3" stroke-width=".7"/></g><g transform="translate(176 84) rotate(-34)"><path d="M0 -4.7C12.6 -8.9 30.5 -5.6 35.9 0C28.7 4.7 12.6 6.1 0 4.7Z" fill="url(#l1)" stroke="#000" stroke-opacity=".55" stroke-width=".8"/><path d="M2 0L28.7 -0.9" stroke="#fff" stroke-opacity=".3" stroke-width=".7"/></g><g transform="translate(176 84) rotate(-57)"><path d="M0 -4C10.7 -7.6 26 -4.8 30.6 0C24.5 4 10.7 5.2 0 4Z" fill="url(#l1)" stroke="#000" stroke-opacity=".55" stroke-width=".8"/><path d="M2 0L24.5 -0.8" stroke="#fff" stroke-opacity=".3" stroke-width=".7"/></g><g transform="translate(176 84) rotate(-80)"><path d="M0 -3.1C8.2 -5.8 20 -3.7 23.6 0C18.8 3.1 8.2 4 0 3.1Z" fill="url(#l1)" stroke="#000" stroke-opacity=".55" stroke-width=".8"/><path d="M2 0L18.8 -0.6" stroke="#fff" stroke-opacity=".3" stroke-width=".7"/></g><g transform="translate(176 90) rotate(12)"><path d="M0 -3.2C8.7 -6.1 21.1 -3.9 24.8 0C19.8 3.2 8.7 4.2 0 3.2Z" fill="url(#l2)" stroke="#000" stroke-opacity=".55" stroke-width=".8"/><path d="M2 0L19.8 -0.6" stroke="#fff" stroke-opacity=".3" stroke-width=".7"/></g><g transform="translate(176 90) rotate(-11)"><path d="M0 -3.4C9 -6.4 22 -4 25.8 0C20.7 3.4 9 4.4 0 3.4Z" fill="url(#l2)" stroke="#000" stroke-opacity=".55" stroke-width=".8"/><path d="M2 0L20.7 -0.7" stroke="#fff" stroke-opacity=".3" stroke-width=".7"/></g><g transform="translate(176 90) rotate(-34)"><path d="M0 -3.2C8.5 -6 20.7 -3.8 24.4 0C19.5 3.2 8.5 4.1 0 3.2Z" fill="url(#l2)" stroke="#000" stroke-opacity=".55" stroke-width=".8"/><path d="M2 0L19.5 -0.6" stroke="#fff" stroke-opacity=".3" stroke-width=".7"/></g><g transform="translate(176 90) rotate(-57)"><path d="M0 -2.7C7.3 -5.1 17.7 -3.2 20.8 0C16.7 2.7 7.3 3.5 0 2.7Z" fill="url(#l2)" stroke="#000" stroke-opacity=".55" stroke-width=".8"/><path d="M2 0L16.7 -0.5" stroke="#fff" stroke-opacity=".3" stroke-width=".7"/></g><g transform="translate(176 90) rotate(-80)"><path d="M0 -2.1C5.6 -4 13.6 -2.5 16 0C12.8 2.1 5.6 2.7 0 2.1Z" fill="url(#l2)" stroke="#000" stroke-opacity=".55" stroke-width=".8"/><path d="M2 0L12.8 -0.4" stroke="#fff" stroke-opacity=".3" stroke-width=".7"/></g><g transform="translate(256 0) scale(-1 1)"><g transform="translate(176 84) rotate(12)"><path d="M0 -4.7C12.7 -9 31 -5.7 36.4 0C29.1 4.7 12.7 6.2 0 4.7Z" fill="url(#l1)" stroke="#000" stroke-opacity=".55" stroke-width=".8"/><path d="M2 0L29.1 -0.9" stroke="#fff" stroke-opacity=".3" stroke-width=".7"/></g><g transform="translate(176 84) rotate(-11)"><path d="M0 -4.9C13.3 -9.4 32.3 -5.9 38 0C30.4 4.9 13.3 6.4 0 4.9Z" fill="url(#l1)" stroke="#000" stroke-opacity=".55" stroke-width=".8"/><path d="M2 0L30.4 -1" stroke="#fff" stroke-opacity=".3" stroke-width=".7"/></g><g transform="translate(176 84) rotate(-34)"><path d="M0 -4.7C12.6 -8.9 30.5 -5.6 35.9 0C28.7 4.7 12.6 6.1 0 4.7Z" fill="url(#l1)" stroke="#000" stroke-opacity=".55" stroke-width=".8"/><path d="M2 0L28.7 -0.9" stroke="#fff" stroke-opacity=".3" stroke-width=".7"/></g><g transform="translate(176 84) rotate(-57)"><path d="M0 -4C10.7 -7.6 26 -4.8 30.6 0C24.5 4 10.7 5.2 0 4Z" fill="url(#l1)" stroke="#000" stroke-opacity=".55" stroke-width=".8"/><path d="M2 0L24.5 -0.8" stroke="#fff" stroke-opacity=".3" stroke-width=".7"/></g><g transform="translate(176 84) rotate(-80)"><path d="M0 -3.1C8.2 -5.8 20 -3.7 23.6 0C18.8 3.1 8.2 4 0 3.1Z" fill="url(#l1)" stroke="#000" stroke-opacity=".55" stroke-width=".8"/><path d="M2 0L18.8 -0.6" stroke="#fff" stroke-opacity=".3" stroke-width=".7"/></g><g transform="translate(176 90) rotate(12)"><path d="M0 -3.2C8.7 -6.1 21.1 -3.9 24.8 0C19.8 3.2 8.7 4.2 0 3.2Z" fill="url(#l2)" stroke="#000" stroke-opacity=".55" stroke-width=".8"/><path d="M2 0L19.8 -0.6" stroke="#fff" stroke-opacity=".3" stroke-width=".7"/></g><g transform="translate(176 90) rotate(-11)"><path d="M0 -3.4C9 -6.4 22 -4 25.8 0C20.7 3.4 9 4.4 0 3.4Z" fill="url(#l2)" stroke="#000" stroke-opacity=".55" stroke-width=".8"/><path d="M2 0L20.7 -0.7" stroke="#fff" stroke-opacity=".3" stroke-width=".7"/></g><g transform="translate(176 90) rotate(-34)"><path d="M0 -3.2C8.5 -6 20.7 -3.8 24.4 0C19.5 3.2 8.5 4.1 0 3.2Z" fill="url(#l2)" stroke="#000" stroke-opacity=".55" stroke-width=".8"/><path d="M2 0L19.5 -0.6" stroke="#fff" stroke-opacity=".3" stroke-width=".7"/></g><g transform="translate(176 90) rotate(-57)"><path d="M0 -2.7C7.3 -5.1 17.7 -3.2 20.8 0C16.7 2.7 7.3 3.5 0 2.7Z" fill="url(#l2)" stroke="#000" stroke-opacity=".55" stroke-width=".8"/><path d="M2 0L16.7 -0.5" stroke="#fff" stroke-opacity=".3" stroke-width=".7"/></g><g transform="translate(176 90) rotate(-80)"><path d="M0 -2.1C5.6 -4 13.6 -2.5 16 0C12.8 2.1 5.6 2.7 0 2.1Z" fill="url(#l2)" stroke="#000" stroke-opacity=".55" stroke-width=".8"/><path d="M2 0L12.8 -0.4" stroke="#fff" stroke-opacity=".3" stroke-width=".7"/></g></g></g><path d="M66 46H190V112C190 160 160 188 128 202C96 188 66 160 66 112Z" fill="url(#l4)" filter="url(#ds)"/><path d="M66 46H190V112C190 160 160 188 128 202C96 188 66 160 66 112Z" fill="none" stroke="#000" stroke-opacity=".55" stroke-width="1.4"/><g transform="translate(128 124) scale(0.882) translate(-128 -124)"><path d="M66 46H190V112C190 160 160 188 128 202C96 188 66 160 66 112Z" fill="url(#r3)"/><path d="M66 46H190V112C190 160 160 188 128 202C96 188 66 160 66 112Z" fill="none" stroke="url(#l5)" stroke-width="3.2"/></g><g transform="translate(128 124) scale(0.943) translate(-128 -124)"><path d="M66 46H190V112C190 160 160 188 128 202C96 188 66 160 66 112Z" fill="none" stroke="#000" stroke-opacity=".45" stroke-width="3.4" stroke-linecap="round" stroke-dasharray="0.1 6.5" transform="translate(.4 .7)"/><path d="M66 46H190V112C190 160 160 188 128 202C96 188 66 160 66 112Z" fill="none" stroke="#fff6cc" stroke-width="2.8" stroke-linecap="round" stroke-dasharray="0.1 6.5"/></g><g transform="translate(128 122) rotate(35)"><g transform="translate(1 2)" opacity="0.45"><rect fill="#000" x="-31.2" y="-3.6" width="62.4" height="7.3" rx="3.6" data-f="url(#l6)" stroke="#000" stroke-opacity=".5" stroke-width=".8"/><rect fill="#000" x="-36.9" y="-18.7" width="8.8" height="37.4" rx="2" data-f="url(#l7)" stroke="#000" stroke-opacity=".5" stroke-width=".8"/><rect fill="#000" x="-44.7" y="-14.6" width="7.8" height="29.1" rx="2" data-f="url(#l7)" stroke="#000" stroke-opacity=".5" stroke-width=".8"/><rect fill="#000" x="-48.9" y="-5.2" width="4.2" height="10.4" rx="1" data-f="url(#l6)" stroke="#000" stroke-opacity=".5" stroke-width=".8"/><rect fill="#000" x="28.1" y="-18.7" width="8.8" height="37.4" rx="2" data-f="url(#l7)" stroke="#000" stroke-opacity=".5" stroke-width=".8"/><rect fill="#000" x="36.9" y="-14.6" width="7.8" height="29.1" rx="2" data-f="url(#l7)" stroke="#000" stroke-opacity=".5" stroke-width=".8"/><rect fill="#000" x="44.7" y="-5.2" width="4.2" height="10.4" rx="1" data-f="url(#l6)" stroke="#000" stroke-opacity=".5" stroke-width=".8"/></g><rect x="-31.2" y="-3.6" width="62.4" height="7.3" rx="3.6" fill="url(#l6)" stroke="#000" stroke-opacity=".5" stroke-width=".8"/><rect x="-36.9" y="-18.7" width="8.8" height="37.4" rx="2" fill="url(#l7)" stroke="#000" stroke-opacity=".5" stroke-width=".8"/><rect x="-44.7" y="-14.6" width="7.8" height="29.1" rx="2" fill="url(#l7)" stroke="#000" stroke-opacity=".5" stroke-width=".8"/><rect x="-48.9" y="-5.2" width="4.2" height="10.4" rx="1" fill="url(#l6)" stroke="#000" stroke-opacity=".5" stroke-width=".8"/><rect x="28.1" y="-18.7" width="8.8" height="37.4" rx="2" fill="url(#l7)" stroke="#000" stroke-opacity=".5" stroke-width=".8"/><rect x="36.9" y="-14.6" width="7.8" height="29.1" rx="2" fill="url(#l7)" stroke="#000" stroke-opacity=".5" stroke-width=".8"/><rect x="44.7" y="-5.2" width="4.2" height="10.4" rx="1" fill="url(#l6)" stroke="#000" stroke-opacity=".5" stroke-width=".8"/></g><g transform="translate(128 122) rotate(-35)"><g transform="translate(1 2)" opacity="0.45"><rect fill="#000" x="-31.2" y="-3.6" width="62.4" height="7.3" rx="3.6" data-f="url(#l8)" stroke="#000" stroke-opacity=".5" stroke-width=".8"/><rect fill="#000" x="-36.9" y="-18.7" width="8.8" height="37.4" rx="2" data-f="url(#l9)" stroke="#000" stroke-opacity=".5" stroke-width=".8"/><rect fill="#000" x="-44.7" y="-14.6" width="7.8" height="29.1" rx="2" data-f="url(#l9)" stroke="#000" stroke-opacity=".5" stroke-width=".8"/><rect fill="#000" x="-48.9" y="-5.2" width="4.2" height="10.4" rx="1" data-f="url(#l8)" stroke="#000" stroke-opacity=".5" stroke-width=".8"/><rect fill="#000" x="28.1" y="-18.7" width="8.8" height="37.4" rx="2" data-f="url(#l9)" stroke="#000" stroke-opacity=".5" stroke-width=".8"/><rect fill="#000" x="36.9" y="-14.6" width="7.8" height="29.1" rx="2" data-f="url(#l9)" stroke="#000" stroke-opacity=".5" stroke-width=".8"/><rect fill="#000" x="44.7" y="-5.2" width="4.2" height="10.4" rx="1" data-f="url(#l8)" stroke="#000" stroke-opacity=".5" stroke-width=".8"/></g><rect x="-31.2" y="-3.6" width="62.4" height="7.3" rx="3.6" fill="url(#l8)" stroke="#000" stroke-opacity=".5" stroke-width=".8"/><rect x="-36.9" y="-18.7" width="8.8" height="37.4" rx="2" fill="url(#l9)" stroke="#000" stroke-opacity=".5" stroke-width=".8"/><rect x="-44.7" y="-14.6" width="7.8" height="29.1" rx="2" fill="url(#l9)" stroke="#000" stroke-opacity=".5" stroke-width=".8"/><rect x="-48.9" y="-5.2" width="4.2" height="10.4" rx="1" fill="url(#l8)" stroke="#000" stroke-opacity=".5" stroke-width=".8"/><rect x="28.1" y="-18.7" width="8.8" height="37.4" rx="2" fill="url(#l9)" stroke="#000" stroke-opacity=".5" stroke-width=".8"/><rect x="36.9" y="-14.6" width="7.8" height="29.1" rx="2" fill="url(#l9)" stroke="#000" stroke-opacity=".5" stroke-width=".8"/><rect x="44.7" y="-5.2" width="4.2" height="10.4" rx="1" fill="url(#l8)" stroke="#000" stroke-opacity=".5" stroke-width=".8"/></g><g clip-path="url(#c11)"><ellipse cx="100" cy="70" rx="70" ry="58" fill="url(#r10)"/></g><g transform="translate(128 44) scale(1.0)" filter="url(#ds)"><path d="M0 -22C6 -14 7 -6 0 2C-7 -6 -6 -14 0 -22ZM-3 0C-8 -2 -16 -2 -17 -10C-18 -16 -12 -18 -10 -13C-12 -12 -12 -8 -8 -6C-6 -5 -4 -4 -3 -2ZM3 0C8 -2 16 -2 17 -10C18 -16 12 -18 10 -13C12 -12 12 -8 8 -6C6 -5 4 -4 3 -2ZM-9 0H9V4H-9Z M-6 4C-6 9 -2 10 0 8C2 10 6 9 6 4Z" fill="url(#l12)" stroke="#000" stroke-opacity=".55" stroke-width=".9"/></g></g><g filter="url(#ds)"><path d="M58 188.6L32 192.6L42 201.6L30 212.6L60 210.6Z" fill="url(#l13)" stroke="#000" stroke-opacity=".5" stroke-width="1"/><path d="M198 188.6L224 192.6L214 201.6L226 212.6L196 210.6Z" fill="url(#l13)" stroke="#000" stroke-opacity=".5" stroke-width="1"/><path d="M54 204.6L60 210.6L58 202.6Z" fill="#0a1638"/><path d="M202 204.6L196 210.6L198 202.6Z" fill="#0a1638"/><path d="M54 184.6Q128 202.6 202 184.6L202 204.6Q128 222.6 54 204.6Z" fill="url(#l13)" stroke="#000" stroke-opacity=".55" stroke-width="1.1"/><path d="M58 188.1Q128 205.6 198 188.1" fill="none" stroke="#fff" stroke-opacity=".25" stroke-width="1"/></g><g transform="translate(0.8 0.96)" fill="#000" opacity="0.6"><rect x="126.3" y="196.1" width="3.4" height="13"/><rect x="124" y="196.1" width="8" height="1.8" rx=".6"/><rect x="124" y="207.3" width="8" height="1.8" rx=".6"/></g><g transform="translate(-0.48 -0.5599999999999999)" fill="#fff" opacity="0.25"><rect x="126.3" y="196.1" width="3.4" height="13"/><rect x="124" y="196.1" width="8" height="1.8" rx=".6"/><rect x="124" y="207.3" width="8" height="1.8" rx=".6"/></g><g fill="url(#l14)"><rect x="126.3" y="196.1" width="3.4" height="13"/><rect x="124" y="196.1" width="8" height="1.8" rx=".6"/><rect x="124" y="207.3" width="8" height="1.8" rx=".6"/></g></svg>