<svg xmlns="http://www.w3.org/2000/svg" viewBox="0 0 200 200" width="200" height="200" role="img" aria-label="Rango oro I"><style>.tw{animation:tw 2.2s ease-in-out infinite;transform-box:fill-box;transform-origin:center}@keyframes tw{0%,100%{opacity:.1;transform:scale(.5)}50%{opacity:1;transform:scale(1)}}.sh{animation:sh 3.4s ease-in-out infinite}@keyframes sh{0%{transform:translateX(-170px)}60%,100%{transform:translateX(170px)}}.au{animation:au 2.6s ease-in-out infinite;transform-origin:100px 105px}@keyframes au{0%,100%{opacity:.7;transform:scale(.95)}50%{opacity:1;transform:scale(1.04)}}.fl{animation:fl .9s ease-in-out infinite alternate;transform-box:fill-box;transform-origin:50% 100%}@keyframes fl{from{transform:scaleY(.86) skewX(-3deg)}to{transform:scaleY(1.08) skewX(3deg)}}@media (prefers-reduced-motion:reduce){.tw,.sh,.au,.fl{animation:none}}</style><defs><linearGradient id="oro1_rim" x1="0" y1="0" x2="0" y2="1"><stop offset="0" stop-color="#fff4c2"/><stop offset="0.35" stop-color="#e6b52c"/><stop offset="0.55" stop-color="#fff4c2"/><stop offset="1" stop-color="#8f6406"/></linearGradient><linearGradient id="oro1_field" x1="0" y1="0" x2="0" y2="1"><stop offset="0" stop-color="#e6b52c"/><stop offset="0.5" stop-color="#8f6406"/><stop offset="1" stop-color="#5c3f00"/></linearGradient><linearGradient id="oro1_plate" x1="0" y1="0" x2="0" y2="1"><stop offset="0" stop-color="#8f6406"/><stop offset="0.5" stop-color="#5c3f00"/><stop offset="1" stop-color="#8f6406"/></linearGradient><linearGradient id="oro1_motif" x1="0" y1="0" x2="0" y2="1"><stop offset="0" stop-color="#ffffff"/><stop offset="0.4" stop-color="#fff3c4"/><stop offset="1" stop-color="#e6b52c"/></linearGradient><linearGradient id="oro1_gold" x1="0" y1="0" x2="0" y2="1"><stop offset="0" stop-color="#fff3c4"/><stop offset="0.45" stop-color="#e6b52c"/><stop offset="1" stop-color="#8f6406"/></linearGradient><clipPath id="oro1_clip"><path d="M56 50 Q100 40 144 50 L151 56 L150 104 C148 137 127 155 100 167 C73 155 52 137 50 104 L49 56 Z"/></clipPath><radialGradient id="oro1_aura"><stop offset="0" stop-color="#ffcc33" stop-opacity=".85"/><stop offset=".55" stop-color="#ffcc33" stop-opacity=".25"/><stop offset="1" stop-color="#ffcc33" stop-opacity="0"/></radialGradient><linearGradient id="oro1_shine" x1="0" y1="0" x2="1" y2="0"><stop offset="0" stop-color="#fff" stop-opacity="0"/><stop offset=".5" stop-color="#fff" stop-opacity=".65"/><stop offset="1" stop-color="#fff" stop-opacity="0"/></linearGradient><linearGradient id="oro1_fire" x1="0" y1="1" x2="0" y2="0"><stop offset="0" stop-color="#ff3d00"/><stop offset=".5" stop-color="#ff8f00"/><stop offset="1" stop-color="#ffe082"/></linearGradient></defs><path d="M78 184 Q37.300000000000004 160 39.2 96" fill="none" stroke="#5c3f00" stroke-width="2.5"/><ellipse cx="76.0" cy="182.0" rx="6" ry="12.5" fill="url(#oro1_gold)" stroke="#5c3f00" stroke-width="1.4" transform="rotate(28 76.0 182.0)"/><ellipse cx="65.7" cy="167.7" rx="6" ry="12.5" fill="url(#oro1_gold)" stroke="#5c3f00" stroke-width="1.4" transform="rotate(37 65.7 167.7)"/><ellipse cx="56.1" cy="153.3" rx="6" ry="12.5" fill="url(#oro1_gold)" stroke="#5c3f00" stroke-width="1.4" transform="rotate(45 56.1 153.3)"/><ellipse cx="47.8" cy="139.0" rx="6" ry="12.5" fill="url(#oro1_gold)" stroke="#5c3f00" stroke-width="1.4" transform="rotate(54 47.8 139.0)"/><ellipse cx="41.4" cy="124.7" rx="6" ry="12.5" fill="url(#oro1_gold)" stroke="#5c3f00" stroke-width="1.4" transform="rotate(63 41.4 124.7)"/><ellipse cx="37.5" cy="110.3" rx="6" ry="12.5" fill="url(#oro1_gold)" stroke="#5c3f00" stroke-width="1.4" transform="rotate(71 37.5 110.3)"/><ellipse cx="36.1" cy="96.0" rx="6" ry="12.5" fill="url(#oro1_gold)" stroke="#5c3f00" stroke-width="1.4" transform="rotate(80 36.1 96.0)"/><path d="M122 184 Q162.7 160 160.8 96" fill="none" stroke="#5c3f00" stroke-width="2.5"/><ellipse cx="124.0" cy="182.0" rx="6" ry="12.5" fill="url(#oro1_gold)" stroke="#5c3f00" stroke-width="1.4" transform="rotate(-28 124.0 182.0)"/><ellipse cx="134.3" cy="167.7" rx="6" ry="12.5" fill="url(#oro1_gold)" stroke="#5c3f00" stroke-width="1.4" transform="rotate(-37 134.3 167.7)"/><ellipse cx="143.9" cy="153.3" rx="6" ry="12.5" fill="url(#oro1_gold)" stroke="#5c3f00" stroke-width="1.4" transform="rotate(-45 143.9 153.3)"/><ellipse cx="152.2" cy="139.0" rx="6" ry="12.5" fill="url(#oro1_gold)" stroke="#5c3f00" stroke-width="1.4" transform="rotate(-54 152.2 139.0)"/><ellipse cx="158.6" cy="124.7" rx="6" ry="12.5" fill="url(#oro1_gold)" stroke="#5c3f00" stroke-width="1.4" transform="rotate(-63 158.6 124.7)"/><ellipse cx="162.5" cy="110.3" rx="6" ry="12.5" fill="url(#oro1_gold)" stroke="#5c3f00" stroke-width="1.4" transform="rotate(-71 162.5 110.3)"/><ellipse cx="163.9" cy="96.0" rx="6" ry="12.5" fill="url(#oro1_gold)" stroke="#5c3f00" stroke-width="1.4" transform="rotate(-80 163.9 96.0)"/><path d="M50 40 Q100 28 150 40 L162 48 L160 104 C158 144 132 166 100 180 C68 166 42 144 40 104 L38 48 Z" transform="translate(0 5)" fill="#000" opacity=".35"/><path d="M50 40 Q100 28 150 40 L162 48 L160 104 C158 144 132 166 100 180 C68 166 42 144 40 104 L38 48 Z" fill="url(#oro1_rim)" stroke="#5c3f00" stroke-width="3" stroke-linejoin="round"/><path d="M56 50 Q100 40 144 50 L151 56 L150 104 C148 137 127 155 100 167 C73 155 52 137 50 104 L49 56 Z" fill="url(#oro1_field)" stroke="#8f6406" stroke-width="2"/><g clip-path="url(#oro1_clip)"><path d="M40 40 L160 40 L160 82 C130 70 70 70 40 88 Z" fill="#fff" opacity=".12"/></g><rect x="56" y="121" width="88" height="6" rx="3" fill="url(#oro1_motif)" stroke="#5c3f00" stroke-width="1.3"/><rect x="62.5" y="109.0" width="7" height="30" rx="2" fill="url(#oro1_motif)" stroke="#5c3f00" stroke-width="1.5"/><rect x="55.5" y="112.5" width="7" height="23" rx="2" fill="url(#oro1_motif)" stroke="#5c3f00" stroke-width="1.5"/><rect x="48.5" y="116.0" width="7" height="16" rx="2" fill="url(#oro1_motif)" stroke="#5c3f00" stroke-width="1.5"/><rect x="130.5" y="109.0" width="7" height="30" rx="2" fill="url(#oro1_motif)" stroke="#5c3f00" stroke-width="1.5"/><rect x="137.5" y="112.5" width="7" height="23" rx="2" fill="url(#oro1_motif)" stroke="#5c3f00" stroke-width="1.5"/><rect x="144.5" y="116.0" width="7" height="16" rx="2" fill="url(#oro1_motif)" stroke="#5c3f00" stroke-width="1.5"/><polygon points="100.0,88.0 103.7,96.9 113.3,97.7 106.0,103.9 108.2,113.3 100.0,108.3 91.8,113.3 94.0,103.9 86.7,97.7 96.3,96.9" fill="url(#oro1_gold)" stroke="#5c3f00" stroke-width="1"/><path d="M46 60 H154 L162 69 L154 78 H46 L38 69 Z" fill="url(#oro1_plate)" stroke="#fff4c2" stroke-width="1.6"/><text x="100" y="74.4" text-anchor="middle" font-family="Impact, 'Arial Black', 'Segoe UI Black', sans-serif" font-weight="900" font-size="15" letter-spacing="1.5" fill="#fff6d6" stroke="#5c3f00" stroke-width=".6" paint-order="stroke">ORO</text><polygon points="100.0,146.0 101.6,149.8 105.7,150.1 102.6,152.8 103.5,156.9 100.0,154.7 96.5,156.9 97.4,152.8 94.3,150.1 98.4,149.8" fill="url(#oro1_gold)" stroke="#5c3f00" stroke-width="1"/></svg>