<svg xmlns="http://www.w3.org/2000/svg" viewBox="0 0 256 256"><defs><filter id="ds" x="-20%" y="-20%" width="140%" height="140%"><feDropShadow dx="0" dy="3" stdDeviation="3" flood-color="#000" flood-opacity=".45"/></filter><radialGradient id="r1" cx="0.5" cy="0.5" r="0.5"><stop offset="0" stop-color="#bfe0ff" stop-opacity="0.3"/><stop offset="0.45" stop-color="#bfe0ff" stop-opacity="0.12"/><stop offset="1" stop-color="#bfe0ff" stop-opacity="0"/></radialGradient><radialGradient id="r2" cx="0.42" cy="0.3" r="0.85"><stop offset="0" stop-color="#3f4c5e"/><stop offset="0.6" stop-color="#232b36"/><stop offset="1" stop-color="#10141a"/></radialGradient><linearGradient id="l3" x1="0" y1="0" x2="1" y2="1"><stop offset="0" stop-color="#ffffff"/><stop offset="0.22" stop-color="#bcc4cd"/><stop offset="0.45" stop-color="#6c7581"/><stop offset="0.62" stop-color="#d2d9e0"/><stop offset="0.8" stop-color="#ffffff"/><stop offset="1" stop-color="#78818c"/></linearGradient><linearGradient id="l4" x1="0" y1="0" x2="0" y2="1"><stop offset="0" stop-color="#000" stop-opacity="0.6"/><stop offset="0.5" stop-color="#000" stop-opacity="0.1"/><stop offset="1" stop-color="#fff" stop-opacity="0.45"/></linearGradient><linearGradient id="l5" x1="0" y1="0" x2="0" y2="1"><stop offset="0" stop-color="#ffffff"/><stop offset="0.22" stop-color="#bcc4cd"/><stop offset="0.45" stop-color="#6c7581"/><stop offset="0.62" stop-color="#d2d9e0"/><stop offset="0.8" stop-color="#ffffff"/><stop offset="1" stop-color="#78818c"/></linearGradient><linearGradient id="l6" x1="0" y1="0" x2="0" y2="1"><stop offset="0" stop-color="#ffffff"/><stop offset="0.5" stop-color="#bcc4cd"/><stop offset="1" stop-color="#6c7581"/></linearGradient><radialGradient id="r7" cx="0.5" cy="0.5" r="0.5"><stop offset="0" stop-color="#fff" stop-opacity="0.3"/><stop offset="0.6" stop-color="#fff" stop-opacity="0.075"/><stop offset="1" stop-color="#fff" stop-opacity="0"/></radialGradient><clipPath id="c8"><path d="M66 46H190V112C190 160 160 188 128 202C96 188 66 160 66 112Z"/></clipPath><linearGradient id="l9" x1="0" y1="0" x2="1" y2="1"><stop offset="0" stop-color="#ffffff"/><stop offset="0.22" stop-color="#bcc4cd"/><stop offset="0.45" stop-color="#6c7581"/><stop offset="0.62" stop-color="#d2d9e0"/><stop offset="0.8" stop-color="#ffffff"/><stop offset="1" stop-color="#78818c"/></linearGradient><linearGradient id="l10" x1="0" y1="0" x2="0" y2="1"><stop offset="0" stop-color="#8a1f2e"/><stop offset="1" stop-color="#561018"/></linearGradient><linearGradient id="l11" x1="0" y1="0" x2="0" y2="1"><stop offset="0" stop-color="#ffffff"/><stop offset="0.22" stop-color="#bcc4cd"/><stop offset="0.45" stop-color="#6c7581"/><stop offset="0.62" stop-color="#d2d9e0"/><stop offset="0.8" stop-color="#ffffff"/><stop offset="1" stop-color="#78818c"/></linearGradient></defs><circle cx="128" cy="118" r="126" fill="url(#r1)"/><g transform="translate(128 124) scale(0.86) translate(-128 -124)"><path d="M66 46H190V112C190 160 160 188 128 202C96 188 66 160 66 112Z" fill="url(#l3)" filter="url(#ds)"/><path d="M66 46H190V112C190 160 160 188 128 202C96 188 66 160 66 112Z" fill="none" stroke="#000" stroke-opacity=".55" stroke-width="1.4"/><g transform="translate(128 124) scale(0.888) translate(-128 -124)"><path d="M66 46H190V112C190 160 160 188 128 202C96 188 66 160 66 112Z" fill="url(#r2)"/><path d="M66 46H190V112C190 160 160 188 128 202C96 188 66 160 66 112Z" fill="none" stroke="url(#l4)" stroke-width="3.2"/></g><g transform="translate(128 124) scale(0.946) translate(-128 -124)"><path d="M66 46H190V112C190 160 160 188 128 202C96 188 66 160 66 112Z" fill="none" stroke="#000" stroke-opacity=".45" stroke-width="3.4" stroke-linecap="round" stroke-dasharray="0.1 6.5" transform="translate(.4 .7)"/><path d="M66 46H190V112C190 160 160 188 128 202C96 188 66 160 66 112Z" fill="none" stroke="#ffffff" stroke-width="2.8" stroke-linecap="round" stroke-dasharray="0.1 6.5"/></g><g transform="translate(128 124) scale(0.8180000000000001) translate(-128 -124)"><path d="M66 46H190V112C190 160 160 188 128 202C96 188 66 160 66 112Z" fill="none" stroke="#ffffff" stroke-opacity=".8" stroke-width="1.6"/></g><g transform="translate(128 122) rotate(-20)"><g transform="translate(1 2)" opacity="0.45"><rect fill="#000" x="-31.2" y="-3.6" width="62.4" height="7.3" rx="3.6" data-f="url(#l5)" stroke="#000" stroke-opacity=".5" stroke-width=".8"/><rect fill="#000" x="-36.9" y="-18.7" width="8.8" height="37.4" rx="2" data-f="url(#l6)" stroke="#000" stroke-opacity=".5" stroke-width=".8"/><rect fill="#000" x="-44.7" y="-14.6" width="7.8" height="29.1" rx="2" data-f="url(#l6)" stroke="#000" stroke-opacity=".5" stroke-width=".8"/><rect fill="#000" x="-48.9" y="-5.2" width="4.2" height="10.4" rx="1" data-f="url(#l5)" stroke="#000" stroke-opacity=".5" stroke-width=".8"/><rect fill="#000" x="28.1" y="-18.7" width="8.8" height="37.4" rx="2" data-f="url(#l6)" stroke="#000" stroke-opacity=".5" stroke-width=".8"/><rect fill="#000" x="36.9" y="-14.6" width="7.8" height="29.1" rx="2" data-f="url(#l6)" stroke="#000" stroke-opacity=".5" stroke-width=".8"/><rect fill="#000" x="44.7" y="-5.2" width="4.2" height="10.4" rx="1" data-f="url(#l5)" stroke="#000" stroke-opacity=".5" stroke-width=".8"/></g><rect x="-31.2" y="-3.6" width="62.4" height="7.3" rx="3.6" fill="url(#l5)" stroke="#000" stroke-opacity=".5" stroke-width=".8"/><rect x="-36.9" y="-18.7" width="8.8" height="37.4" rx="2" fill="url(#l6)" stroke="#000" stroke-opacity=".5" stroke-width=".8"/><rect x="-44.7" y="-14.6" width="7.8" height="29.1" rx="2" fill="url(#l6)" stroke="#000" stroke-opacity=".5" stroke-width=".8"/><rect x="-48.9" y="-5.2" width="4.2" height="10.4" rx="1" fill="url(#l5)" stroke="#000" stroke-opacity=".5" stroke-width=".8"/><rect x="28.1" y="-18.7" width="8.8" height="37.4" rx="2" fill="url(#l6)" stroke="#000" stroke-opacity=".5" stroke-width=".8"/><rect x="36.9" y="-14.6" width="7.8" height="29.1" rx="2" fill="url(#l6)" stroke="#000" stroke-opacity=".5" stroke-width=".8"/><rect x="44.7" y="-5.2" width="4.2" height="10.4" rx="1" fill="url(#l5)" stroke="#000" stroke-opacity=".5" stroke-width=".8"/></g><g clip-path="url(#c8)"><ellipse cx="100" cy="70" rx="70" ry="58" fill="url(#r7)"/></g><rect x="126.4" y="38.2" width="3.2" height="8.8" fill="url(#l9)" stroke="#000" stroke-opacity=".5" stroke-width=".6"/><circle cx="128" cy="36.5" r="5.5" fill="url(#l9)" stroke="#000" stroke-opacity=".55" stroke-width=".8"/></g><g filter="url(#ds)"><path d="M58 187.1L32 191.1L42 200.1L30 211.1L60 209.1Z" fill="url(#l10)" stroke="#000" stroke-opacity=".5" stroke-width="1"/><path d="M198 187.1L224 191.1L214 200.1L226 211.1L196 209.1Z" fill="url(#l10)" stroke="#000" stroke-opacity=".5" stroke-width="1"/><path d="M54 203.1L60 209.1L58 201.1Z" fill="#30070c"/><path d="M202 203.1L196 209.1L198 201.1Z" fill="#30070c"/><path d="M54 183.1Q128 201.1 202 183.1L202 203.1Q128 221.1 54 203.1Z" fill="url(#l10)" stroke="#000" stroke-opacity=".55" stroke-width="1.1"/><path d="M58 186.6Q128 204.1 198 186.6" fill="none" stroke="#fff" stroke-opacity=".25" stroke-width="1"/></g><g transform="translate(0.8 0.96)" fill="#000" opacity="0.6"><rect x="121.8" y="194.6" width="3.4" height="13"/><rect x="119.5" y="194.6" width="8" height="1.8" rx=".6"/><rect x="119.5" y="205.8" width="8" height="1.8" rx=".6"/><rect x="130.8" y="194.6" width="3.4" height="13"/><rect x="128.5" y="194.6" width="8" height="1.8" rx=".6"/><rect x="128.5" y="205.8" width="8" height="1.8" rx=".6"/></g><g transform="translate(-0.48 -0.5599999999999999)" fill="#fff" opacity="0.25"><rect x="121.8" y="194.6" width="3.4" height="13"/><rect x="119.5" y="194.6" width="8" height="1.8" rx=".6"/><rect x="119.5" y="205.8" width="8" height="1.8" rx=".6"/><rect x="130.8" y="194.6" width="3.4" height="13"/><rect x="128.5" y="194.6" width="8" height="1.8" rx=".6"/><rect x="128.5" y="205.8" width="8" height="1.8" rx=".6"/></g><g fill="url(#l11)"><rect x="121.8" y="194.6" width="3.4" height="13"/><rect x="119.5" y="194.6" width="8" height="1.8" rx=".6"/><rect x="119.5" y="205.8" width="8" height="1.8" rx=".6"/><rect x="130.8" y="194.6" width="3.4" height="13"/><rect x="128.5" y="194.6" width="8" height="1.8" rx=".6"/><rect x="128.5" y="205.8" width="8" height="1.8" rx=".6"/></g></svg>