<svg xmlns="http://www.w3.org/2000/svg" viewBox="0 0 256 256"><defs><filter id="ds" x="-20%" y="-20%" width="140%" height="140%"><feDropShadow dx="0" dy="3" stdDeviation="2.6" flood-color="#000" flood-opacity=".5"/></filter><filter id="blur3" x="-20%" y="-50%" width="140%" height="200%"><feGaussianBlur stdDeviation="3"/></filter><linearGradient id="l1" x1="0" y1="0" x2="1" y2="0"><stop offset="0" stop-color="#6e7681"/><stop offset="0.55" stop-color="#b8c0c8"/><stop offset="1" stop-color="#b8c0c8"/></linearGradient><linearGradient id="l2" x1="0" y1="0" x2="1" y2="0"><stop offset="0" stop-color="#b8c0c8"/><stop offset="0.5" stop-color="#ffffff"/><stop offset="1" stop-color="#ffffff"/></linearGradient><linearGradient id="l3" x1="0" y1="0" x2="1" y2="0"><stop offset="0" stop-color="#ffffff"/><stop offset="1" stop-color="#ffffff"/></linearGradient><linearGradient id="l4" x1="0" y1="0" x2="0" y2="1"><stop offset="0" stop-color="#ffffff"/><stop offset="0.16" stop-color="#cfd5dc"/><stop offset="0.34" stop-color="#6e7681"/><stop offset="0.5" stop-color="#d9dee4"/><stop offset="0.66" stop-color="#ffffff"/><stop offset="0.82" stop-color="#8c949e"/><stop offset="1" stop-color="#4a5058"/></linearGradient><linearGradient id="l5" x1="0" y1="0" x2="0" y2="1"><stop offset="0" stop-color="#ffffff"/><stop offset="0.45" stop-color="#b8c0c8"/><stop offset="1" stop-color="#6e7681"/></linearGradient><linearGradient id="l6" x1="0" y1="0" x2="1" y2="1"><stop offset="0" stop-color="#ffffff"/><stop offset="0.16" stop-color="#cfd5dc"/><stop offset="0.34" stop-color="#6e7681"/><stop offset="0.5" stop-color="#d9dee4"/><stop offset="0.66" stop-color="#ffffff"/><stop offset="0.82" stop-color="#8c949e"/><stop offset="1" stop-color="#4a5058"/></linearGradient><radialGradient id="r7" cx="0.35" cy="0.3" r="0.75"><stop offset="0" stop-color="#ffffff"/><stop offset="0.35" stop-color="#ffffff"/><stop offset="0.75" stop-color="#cfd5dc"/><stop offset="1" stop-color="#2a2f36"/></radialGradient><radialGradient id="r8" cx="0.4" cy="0.28" r="0.9"><stop offset="0" stop-color="#e4e8ec"/><stop offset="0.55" stop-color="#a9b0b8"/><stop offset="1" stop-color="#5d646d"/></radialGradient><radialGradient id="r9" cx="0.5" cy="0.45" r="0.62"><stop offset="0" stop-color="#000" stop-opacity="0"/><stop offset="0.62" stop-color="#000" stop-opacity="0"/><stop offset="1" stop-color="#000" stop-opacity="0.5"/></radialGradient><linearGradient id="l10" x1="0" y1="0" x2="0" y2="1"><stop offset="0" stop-color="#2a2f36" stop-opacity="0.85"/><stop offset="0.5" stop-color="#2a2f36" stop-opacity="0.2"/><stop offset="1" stop-color="#ffffff" stop-opacity="0.7"/></linearGradient><radialGradient id="r11" cx="0.5" cy="0.5" r="0.5"><stop offset="0" stop-color="#ffffff" stop-opacity="0.45"/><stop offset="0.6" stop-color="#ffffff" stop-opacity="0.1"/><stop offset="1" stop-color="#ffffff" stop-opacity="0"/></radialGradient><clipPath id="c12"><path d="M66 46H190V112C190 160 160 188 128 202C96 188 66 160 66 112Z"/></clipPath><linearGradient id="l13" x1="0" y1="0" x2="0" y2="1"><stop offset="0" stop-color="#ffffff"/><stop offset="0.3" stop-color="#cfd5dc"/><stop offset="0.6" stop-color="#6e7681"/><stop offset="1" stop-color="#2a2f36"/></linearGradient><linearGradient id="l14" x1="0" y1="0" x2="1" y2="0"><stop offset="0" stop-color="#2a2f36"/><stop offset="0.25" stop-color="#cfd5dc"/><stop offset="0.5" stop-color="#ffffff"/><stop offset="0.75" stop-color="#cfd5dc"/><stop offset="1" stop-color="#2a2f36"/></linearGradient><radialGradient id="r15" cx="0.4" cy="0.35" r="0.7"><stop offset="0" stop-color="#ffffff"/><stop offset="0.6" stop-color="#cfd5dc"/><stop offset="1" stop-color="#6e7681"/></radialGradient><linearGradient id="l16" x1="0" y1="0" x2="0" y2="1"><stop offset="0" stop-color="#ffffff"/><stop offset="0.16" stop-color="#cfd5dc"/><stop offset="0.34" stop-color="#6e7681"/><stop offset="0.5" stop-color="#d9dee4"/><stop offset="0.66" stop-color="#ffffff"/><stop offset="0.82" stop-color="#8c949e"/><stop offset="1" stop-color="#4a5058"/></linearGradient><linearGradient id="l17" x1="0" y1="0" x2="1" y2="1"><stop offset="0" stop-color="#ffffff"/><stop offset="0.16" stop-color="#cfd5dc"/><stop offset="0.34" stop-color="#6e7681"/><stop offset="0.5" stop-color="#d9dee4"/><stop offset="0.66" stop-color="#ffffff"/><stop offset="0.82" stop-color="#8c949e"/><stop offset="1" stop-color="#4a5058"/></linearGradient><linearGradient id="l18" x1="0" y1="0" x2="0" y2="1"><stop offset="0" stop-color="#ffffff"/><stop offset="0.16" stop-color="#cfd5dc"/><stop offset="0.34" stop-color="#6e7681"/><stop offset="0.5" stop-color="#d9dee4"/><stop offset="0.66" stop-color="#ffffff"/><stop offset="0.82" stop-color="#8c949e"/><stop offset="1" stop-color="#4a5058"/></linearGradient><linearGradient id="l19" x1="0" y1="0" x2="1" y2="1"><stop offset="0" stop-color="#ffffff"/><stop offset="0.16" stop-color="#cfd5dc"/><stop offset="0.34" stop-color="#6e7681"/><stop offset="0.5" stop-color="#d9dee4"/><stop offset="0.66" stop-color="#ffffff"/><stop offset="0.82" stop-color="#8c949e"/><stop offset="1" stop-color="#4a5058"/></linearGradient><linearGradient id="l20" x1="0" y1="0" x2="1" y2="1"><stop offset="0" stop-color="#ffffff"/><stop offset="0.16" stop-color="#cfd5dc"/><stop offset="0.34" stop-color="#6e7681"/><stop offset="0.5" stop-color="#d9dee4"/><stop offset="0.66" stop-color="#ffffff"/><stop offset="0.82" stop-color="#8c949e"/><stop offset="1" stop-color="#4a5058"/></linearGradient><linearGradient id="l21" x1="0" y1="0" x2="0" y2="1"><stop offset="0" stop-color="#ffffff"/><stop offset="0.16" stop-color="#cfd5dc"/><stop offset="0.34" stop-color="#6e7681"/><stop offset="0.5" stop-color="#d9dee4"/><stop offset="0.66" stop-color="#ffffff"/><stop offset="0.82" stop-color="#8c949e"/><stop offset="1" stop-color="#4a5058"/></linearGradient><radialGradient id="r22" cx="0.35" cy="0.3" r="0.8"><stop offset="0" stop-color="#ffd6dc"/><stop offset="0.4" stop-color="#d02040"/><stop offset="1" stop-color="#5a0614"/></radialGradient><linearGradient id="l23" x1="0" y1="0" x2="0" y2="1"><stop offset="0" stop-color="#8e2030"/><stop offset="0.55" stop-color="#5c111c"/><stop offset="1" stop-color="#30070c"/></linearGradient><linearGradient id="l24" x1="0" y1="0" x2="0" y2="1"><stop offset="0" stop-color="#5c111c"/><stop offset="1" stop-color="#30070c"/></linearGradient><linearGradient id="l25" x1="0" y1="0" x2="0" y2="1"><stop offset="0" stop-color="#fff" stop-opacity="0"/><stop offset="0.25" stop-color="#fff" stop-opacity="0.22"/><stop offset="0.45" stop-color="#fff" stop-opacity="0"/><stop offset="1" stop-color="#fff" stop-opacity="0"/></linearGradient><clipPath id="c26"><path d="M54 186.2Q128 204.2 202 186.2L202 207.2Q128 225.2 54 207.2Z"/></clipPath><linearGradient id="l27" x1="0" y1="0" x2="0" y2="1"><stop offset="0" stop-color="#ffffff"/><stop offset="0.16" stop-color="#cfd5dc"/><stop offset="0.34" stop-color="#6e7681"/><stop offset="0.5" stop-color="#d9dee4"/><stop offset="0.66" stop-color="#ffffff"/><stop offset="0.82" stop-color="#8c949e"/><stop offset="1" stop-color="#4a5058"/></linearGradient></defs><g transform="translate(128 124) scale(0.9) translate(-128 -124)"><g filter="url(#ds)"><g transform="translate(176 72) rotate(58.27)"><path d="M0 -2.07C5.51 -5.74 14.69 -5.05 18.36 -0.92Q18.91 2.07 14.69 3.44C5.51 4.36 1.84 2.07 0 2.07Z" fill="url(#l1)" stroke="#2a2f36" stroke-width=".7"/><path d="M1 0L16.89 0" stroke="#ffffff" stroke-opacity=".6" stroke-width=".6"/><path d="M6.43 -0.46l1.29 -2.52" stroke="#2a2f36" stroke-opacity=".35" stroke-width=".5"/><path d="M9.18 -0.46l1.29 -2.52" stroke="#2a2f36" stroke-opacity=".35" stroke-width=".5"/><path d="M11.93 -0.46l1.29 -2.52" stroke="#2a2f36" stroke-opacity=".35" stroke-width=".5"/></g><g transform="translate(182.43 64.26) rotate(48.71)"><path d="M0 -2.34C6.23 -6.49 16.61 -5.71 20.76 -1.04Q21.38 2.34 16.61 3.89C6.23 4.93 2.08 2.34 0 2.34Z" fill="url(#l1)" stroke="#2a2f36" stroke-width=".7"/><path d="M1 0L19.1 0" stroke="#ffffff" stroke-opacity=".6" stroke-width=".6"/><path d="M7.27 -0.52l1.45 -2.85" stroke="#2a2f36" stroke-opacity=".35" stroke-width=".5"/><path d="M10.38 -0.52l1.45 -2.85" stroke="#2a2f36" stroke-opacity=".35" stroke-width=".5"/><path d="M13.5 -0.52l1.45 -2.85" stroke="#2a2f36" stroke-opacity=".35" stroke-width=".5"/></g><g transform="translate(188.82 57.52) rotate(44.74)"><path d="M0 -2.87C7.65 -7.96 20.39 -7.01 25.49 -1.27Q26.25 2.87 20.39 4.78C7.65 6.05 2.55 2.87 0 2.87Z" fill="url(#l1)" stroke="#2a2f36" stroke-width=".7"/><path d="M1 0L23.45 0" stroke="#ffffff" stroke-opacity=".6" stroke-width=".6"/><path d="M8.92 -0.64l1.78 -3.5" stroke="#2a2f36" stroke-opacity=".35" stroke-width=".5"/><path d="M12.74 -0.64l1.78 -3.5" stroke="#2a2f36" stroke-opacity=".35" stroke-width=".5"/><path d="M16.57 -0.64l1.78 -3.5" stroke="#2a2f36" stroke-opacity=".35" stroke-width=".5"/></g><g transform="translate(195.13 51.65) rotate(34.87)"><path d="M0 -3.03C8.08 -8.42 21.55 -7.41 26.94 -1.35Q27.75 3.03 21.55 5.05C8.08 6.4 2.69 3.03 0 3.03Z" fill="url(#l1)" stroke="#2a2f36" stroke-width=".7"/><path d="M1 0L24.79 0" stroke="#ffffff" stroke-opacity=".6" stroke-width=".6"/><path d="M9.43 -0.67l1.89 -3.7" stroke="#2a2f36" stroke-opacity=".35" stroke-width=".5"/><path d="M13.47 -0.67l1.89 -3.7" stroke="#2a2f36" stroke-opacity=".35" stroke-width=".5"/><path d="M17.51 -0.67l1.89 -3.7" stroke="#2a2f36" stroke-opacity=".35" stroke-width=".5"/></g><g transform="translate(201.3 46.52) rotate(23.75)"><path d="M0 -3.49C9.3 -9.68 24.79 -8.52 30.99 -1.55Q31.92 3.49 24.79 5.81C9.3 7.36 3.1 3.49 0 3.49Z" fill="url(#l1)" stroke="#2a2f36" stroke-width=".7"/><path d="M1 0L28.51 0" stroke="#ffffff" stroke-opacity=".6" stroke-width=".6"/><path d="M10.85 -0.77l2.17 -4.26" stroke="#2a2f36" stroke-opacity=".35" stroke-width=".5"/><path d="M15.5 -0.77l2.17 -4.26" stroke="#2a2f36" stroke-opacity=".35" stroke-width=".5"/><path d="M20.14 -0.77l2.17 -4.26" stroke="#2a2f36" stroke-opacity=".35" stroke-width=".5"/></g><g transform="translate(207.3 42) rotate(18.8)"><path d="M0 -3.67C9.77 -10.18 26.07 -8.96 32.58 -1.63Q33.56 3.67 26.07 6.11C9.77 7.74 3.26 3.67 0 3.67Z" fill="url(#l1)" stroke="#2a2f36" stroke-width=".7"/><path d="M1 0L29.98 0" stroke="#ffffff" stroke-opacity=".6" stroke-width=".6"/><path d="M11.4 -0.81l2.28 -4.48" stroke="#2a2f36" stroke-opacity=".35" stroke-width=".5"/><path d="M16.29 -0.81l2.28 -4.48" stroke="#2a2f36" stroke-opacity=".35" stroke-width=".5"/><path d="M21.18 -0.81l2.28 -4.48" stroke="#2a2f36" stroke-opacity=".35" stroke-width=".5"/></g><g transform="translate(213.08 37.96) rotate(10.97)"><path d="M0 -4.09C10.9 -11.36 29.07 -9.99 36.34 -1.82Q37.43 4.09 29.07 6.81C10.9 8.63 3.63 4.09 0 4.09Z" fill="url(#l1)" stroke="#2a2f36" stroke-width=".7"/><path d="M1 0L33.43 0" stroke="#ffffff" stroke-opacity=".6" stroke-width=".6"/><path d="M12.72 -0.91l2.54 -5" stroke="#2a2f36" stroke-opacity=".35" stroke-width=".5"/><path d="M18.17 -0.91l2.54 -5" stroke="#2a2f36" stroke-opacity=".35" stroke-width=".5"/><path d="M23.62 -0.91l2.54 -5" stroke="#2a2f36" stroke-opacity=".35" stroke-width=".5"/></g><path d="M176 72 L178.1 69.36 L180.2 66.83 L182.29 64.42 L184.38 62.11 L186.47 59.91 L188.55 57.8 L190.61 55.78 L192.67 53.86 L194.72 52.01 L196.75 50.25 L198.77 48.56 L200.77 46.94 L202.75 45.39 L204.71 43.9 L206.66 42.47 L208.58 41.09 L210.47 39.76 L212.34 38.47" fill="none" stroke="#2a2f36" stroke-width="4.4" stroke-linecap="round"/><path d="M176 72 L178.1 69.36 L180.2 66.83 L182.29 64.42 L184.38 62.11 L186.47 59.91 L188.55 57.8 L190.61 55.78 L192.67 53.86 L194.72 52.01 L196.75 50.25 L198.77 48.56 L200.77 46.94 L202.75 45.39 L204.71 43.9 L206.66 42.47 L208.58 41.09 L210.47 39.76 L212.34 38.47" fill="none" stroke="url(#l4)" stroke-width="3" stroke-linecap="round"/><g transform="translate(256 0) scale(-1 1)"><g transform="translate(176 72) rotate(58.27)"><path d="M0 -2.07C5.51 -5.74 14.69 -5.05 18.36 -0.92Q18.91 2.07 14.69 3.44C5.51 4.36 1.84 2.07 0 2.07Z" fill="url(#l1)" stroke="#2a2f36" stroke-width=".7"/><path d="M1 0L16.89 0" stroke="#ffffff" stroke-opacity=".6" stroke-width=".6"/><path d="M6.43 -0.46l1.29 -2.52" stroke="#2a2f36" stroke-opacity=".35" stroke-width=".5"/><path d="M9.18 -0.46l1.29 -2.52" stroke="#2a2f36" stroke-opacity=".35" stroke-width=".5"/><path d="M11.93 -0.46l1.29 -2.52" stroke="#2a2f36" stroke-opacity=".35" stroke-width=".5"/></g><g transform="translate(182.43 64.26) rotate(48.71)"><path d="M0 -2.34C6.23 -6.49 16.61 -5.71 20.76 -1.04Q21.38 2.34 16.61 3.89C6.23 4.93 2.08 2.34 0 2.34Z" fill="url(#l1)" stroke="#2a2f36" stroke-width=".7"/><path d="M1 0L19.1 0" stroke="#ffffff" stroke-opacity=".6" stroke-width=".6"/><path d="M7.27 -0.52l1.45 -2.85" stroke="#2a2f36" stroke-opacity=".35" stroke-width=".5"/><path d="M10.38 -0.52l1.45 -2.85" stroke="#2a2f36" stroke-opacity=".35" stroke-width=".5"/><path d="M13.5 -0.52l1.45 -2.85" stroke="#2a2f36" stroke-opacity=".35" stroke-width=".5"/></g><g transform="translate(188.82 57.52) rotate(44.74)"><path d="M0 -2.87C7.65 -7.96 20.39 -7.01 25.49 -1.27Q26.25 2.87 20.39 4.78C7.65 6.05 2.55 2.87 0 2.87Z" fill="url(#l1)" stroke="#2a2f36" stroke-width=".7"/><path d="M1 0L23.45 0" stroke="#ffffff" stroke-opacity=".6" stroke-width=".6"/><path d="M8.92 -0.64l1.78 -3.5" stroke="#2a2f36" stroke-opacity=".35" stroke-width=".5"/><path d="M12.74 -0.64l1.78 -3.5" stroke="#2a2f36" stroke-opacity=".35" stroke-width=".5"/><path d="M16.57 -0.64l1.78 -3.5" stroke="#2a2f36" stroke-opacity=".35" stroke-width=".5"/></g><g transform="translate(195.13 51.65) rotate(34.87)"><path d="M0 -3.03C8.08 -8.42 21.55 -7.41 26.94 -1.35Q27.75 3.03 21.55 5.05C8.08 6.4 2.69 3.03 0 3.03Z" fill="url(#l1)" stroke="#2a2f36" stroke-width=".7"/><path d="M1 0L24.79 0" stroke="#ffffff" stroke-opacity=".6" stroke-width=".6"/><path d="M9.43 -0.67l1.89 -3.7" stroke="#2a2f36" stroke-opacity=".35" stroke-width=".5"/><path d="M13.47 -0.67l1.89 -3.7" stroke="#2a2f36" stroke-opacity=".35" stroke-width=".5"/><path d="M17.51 -0.67l1.89 -3.7" stroke="#2a2f36" stroke-opacity=".35" stroke-width=".5"/></g><g transform="translate(201.3 46.52) rotate(23.75)"><path d="M0 -3.49C9.3 -9.68 24.79 -8.52 30.99 -1.55Q31.92 3.49 24.79 5.81C9.3 7.36 3.1 3.49 0 3.49Z" fill="url(#l1)" stroke="#2a2f36" stroke-width=".7"/><path d="M1 0L28.51 0" stroke="#ffffff" stroke-opacity=".6" stroke-width=".6"/><path d="M10.85 -0.77l2.17 -4.26" stroke="#2a2f36" stroke-opacity=".35" stroke-width=".5"/><path d="M15.5 -0.77l2.17 -4.26" stroke="#2a2f36" stroke-opacity=".35" stroke-width=".5"/><path d="M20.14 -0.77l2.17 -4.26" stroke="#2a2f36" stroke-opacity=".35" stroke-width=".5"/></g><g transform="translate(207.3 42) rotate(18.8)"><path d="M0 -3.67C9.77 -10.18 26.07 -8.96 32.58 -1.63Q33.56 3.67 26.07 6.11C9.77 7.74 3.26 3.67 0 3.67Z" fill="url(#l1)" stroke="#2a2f36" stroke-width=".7"/><path d="M1 0L29.98 0" stroke="#ffffff" stroke-opacity=".6" stroke-width=".6"/><path d="M11.4 -0.81l2.28 -4.48" stroke="#2a2f36" stroke-opacity=".35" stroke-width=".5"/><path d="M16.29 -0.81l2.28 -4.48" stroke="#2a2f36" stroke-opacity=".35" stroke-width=".5"/><path d="M21.18 -0.81l2.28 -4.48" stroke="#2a2f36" stroke-opacity=".35" stroke-width=".5"/></g><g transform="translate(213.08 37.96) rotate(10.97)"><path d="M0 -4.09C10.9 -11.36 29.07 -9.99 36.34 -1.82Q37.43 4.09 29.07 6.81C10.9 8.63 3.63 4.09 0 4.09Z" fill="url(#l1)" stroke="#2a2f36" stroke-width=".7"/><path d="M1 0L33.43 0" stroke="#ffffff" stroke-opacity=".6" stroke-width=".6"/><path d="M12.72 -0.91l2.54 -5" stroke="#2a2f36" stroke-opacity=".35" stroke-width=".5"/><path d="M18.17 -0.91l2.54 -5" stroke="#2a2f36" stroke-opacity=".35" stroke-width=".5"/><path d="M23.62 -0.91l2.54 -5" stroke="#2a2f36" stroke-opacity=".35" stroke-width=".5"/></g><path d="M176 72 L178.1 69.36 L180.2 66.83 L182.29 64.42 L184.38 62.11 L186.47 59.91 L188.55 57.8 L190.61 55.78 L192.67 53.86 L194.72 52.01 L196.75 50.25 L198.77 48.56 L200.77 46.94 L202.75 45.39 L204.71 43.9 L206.66 42.47 L208.58 41.09 L210.47 39.76 L212.34 38.47" fill="none" stroke="#2a2f36" stroke-width="4.4" stroke-linecap="round"/><path d="M176 72 L178.1 69.36 L180.2 66.83 L182.29 64.42 L184.38 62.11 L186.47 59.91 L188.55 57.8 L190.61 55.78 L192.67 53.86 L194.72 52.01 L196.75 50.25 L198.77 48.56 L200.77 46.94 L202.75 45.39 L204.71 43.9 L206.66 42.47 L208.58 41.09 L210.47 39.76 L212.34 38.47" fill="none" stroke="url(#l4)" stroke-width="3" stroke-linecap="round"/></g></g><g filter="url(#ds)"><path d="M98 212 L93.86 212.2 L89.85 212.21 L85.97 212.04 L82.21 211.68 L78.58 211.13 L75.07 210.41 L71.68 209.52 L68.42 208.45 L65.27 207.21 L62.25 205.81 L59.35 204.25 L56.56 202.53 L53.9 200.66 L51.35 198.63 L48.92 196.46 L46.61 194.14 L44.41 191.69 L42.33 189.09 L40.36 186.36 L38.5 183.5 L36.76 180.51 L35.12 177.4 L33.6 174.17 L32.19 170.82 L30.89 167.35 L29.7 163.78 L28.61 160.09 L27.64 156.31 L26.77 152.42 L26 148.44 L25.34 144.36 L24.78 140.19 L24.33 135.94 L23.98 131.6 L23.73 127.18 L23.59 122.68 L23.54 118.11 L23.6 113.48 L23.75 108.77 L24 104" fill="none" stroke="#2a2f36" stroke-width="1.6" stroke-linecap="round"/><g transform="translate(87.25 212.12) rotate(-213.25)"><path d="M0 0C5.04 -6.85 14.5 -5.82 20.14 0C14.5 4.11 5.04 5.14 0 0Z" fill="url(#l5)" stroke="#2a2f36" stroke-width=".7"/><path d="M1.5 0L17.12 -0.6" stroke="#2a2f36" stroke-opacity=".55" stroke-width=".7"/><path d="M4.03 -4.03Q10.07 -6.04 16.11 -2.42" fill="none" stroke="#ffffff" stroke-opacity=".75" stroke-width=".6"/></g><g transform="translate(87.25 212.12) rotate(-143.11)"><path d="M0 0C5.04 -6.85 14.5 -5.82 20.14 0C14.5 4.11 5.04 5.14 0 0Z" fill="url(#l5)" stroke="#2a2f36" stroke-width=".7"/><path d="M1.5 0L17.12 -0.6" stroke="#2a2f36" stroke-opacity=".55" stroke-width=".7"/><path d="M4.03 -4.03Q10.07 -6.04 16.11 -2.42" fill="none" stroke="#ffffff" stroke-opacity=".75" stroke-width=".6"/></g><g transform="translate(77.39 210.91) rotate(-201.46)"><path d="M0 0C5 -6.8 14.39 -5.78 19.99 0C14.39 4.08 5 5.1 0 0Z" fill="url(#l5)" stroke="#2a2f36" stroke-width=".7"/><path d="M1.5 0L16.99 -0.6" stroke="#2a2f36" stroke-opacity=".55" stroke-width=".7"/><path d="M4 -4Q10 -6 15.99 -2.4" fill="none" stroke="#ffffff" stroke-opacity=".75" stroke-width=".6"/></g><g transform="translate(77.39 210.91) rotate(-135.05)"><path d="M0 0C5 -6.8 14.39 -5.78 19.99 0C14.39 4.08 5 5.1 0 0Z" fill="url(#l5)" stroke="#2a2f36" stroke-width=".7"/><path d="M1.5 0L16.99 -0.6" stroke="#2a2f36" stroke-opacity=".55" stroke-width=".7"/><path d="M4 -4Q10 -6 15.99 -2.4" fill="none" stroke="#ffffff" stroke-opacity=".75" stroke-width=".6"/></g><g transform="translate(68.42 208.45) rotate(-195.53)"><path d="M0 0C5.23 -7.12 15.07 -6.05 20.93 0C15.07 4.27 5.23 5.34 0 0Z" fill="url(#l5)" stroke="#2a2f36" stroke-width=".7"/><path d="M1.5 0L17.79 -0.63" stroke="#2a2f36" stroke-opacity=".55" stroke-width=".7"/><path d="M4.19 -4.19Q10.47 -6.28 16.74 -2.51" fill="none" stroke="#ffffff" stroke-opacity=".75" stroke-width=".6"/></g><g transform="translate(68.42 208.45) rotate(-123.76)"><path d="M0 0C5.23 -7.12 15.07 -6.05 20.93 0C15.07 4.27 5.23 5.34 0 0Z" fill="url(#l5)" stroke="#2a2f36" stroke-width=".7"/><path d="M1.5 0L17.79 -0.63" stroke="#2a2f36" stroke-opacity=".55" stroke-width=".7"/><path d="M4.19 -4.19Q10.47 -6.28 16.74 -2.51" fill="none" stroke="#ffffff" stroke-opacity=".75" stroke-width=".6"/></g><g transform="translate(60.3 204.79) rotate(-188.87)"><path d="M0 0C5.11 -6.95 14.72 -5.91 20.45 0C14.72 4.17 5.11 5.21 0 0Z" fill="url(#l5)" stroke="#2a2f36" stroke-width=".7"/><path d="M1.5 0L17.38 -0.61" stroke="#2a2f36" stroke-opacity=".55" stroke-width=".7"/><path d="M4.09 -4.09Q10.22 -6.13 16.36 -2.45" fill="none" stroke="#ffffff" stroke-opacity=".75" stroke-width=".6"/></g><g transform="translate(60.3 204.79) rotate(-112.11)"><path d="M0 0C5.11 -6.95 14.72 -5.91 20.45 0C14.72 4.17 5.11 5.21 0 0Z" fill="url(#l5)" stroke="#2a2f36" stroke-width=".7"/><path d="M1.5 0L17.38 -0.61" stroke="#2a2f36" stroke-opacity=".55" stroke-width=".7"/><path d="M4.09 -4.09Q10.22 -6.13 16.36 -2.45" fill="none" stroke="#ffffff" stroke-opacity=".75" stroke-width=".6"/></g><g transform="translate(53.04 200) rotate(-179.92)"><path d="M0 0C5 -6.8 14.4 -5.78 20 0C14.4 4.08 5 5.1 0 0Z" fill="url(#l5)" stroke="#2a2f36" stroke-width=".7"/><path d="M1.5 0L17 -0.6" stroke="#2a2f36" stroke-opacity=".55" stroke-width=".7"/><path d="M4 -4Q10 -6 16 -2.4" fill="none" stroke="#ffffff" stroke-opacity=".75" stroke-width=".6"/></g><g transform="translate(53.04 200) rotate(-108.19)"><path d="M0 0C5 -6.8 14.4 -5.78 20 0C14.4 4.08 5 5.1 0 0Z" fill="url(#l5)" stroke="#2a2f36" stroke-width=".7"/><path d="M1.5 0L17 -0.6" stroke="#2a2f36" stroke-opacity=".55" stroke-width=".7"/><path d="M4 -4Q10 -6 16 -2.4" fill="none" stroke="#ffffff" stroke-opacity=".75" stroke-width=".6"/></g><g transform="translate(46.61 194.14) rotate(-171.56)"><path d="M0 0C4.6 -6.26 13.25 -5.32 18.4 0C13.25 3.75 4.6 4.69 0 0Z" fill="url(#l5)" stroke="#2a2f36" stroke-width=".7"/><path d="M1.5 0L15.64 -0.55" stroke="#2a2f36" stroke-opacity=".55" stroke-width=".7"/><path d="M3.68 -3.68Q9.2 -5.52 14.72 -2.21" fill="none" stroke="#ffffff" stroke-opacity=".75" stroke-width=".6"/></g><g transform="translate(46.61 194.14) rotate(-95.65)"><path d="M0 0C4.6 -6.26 13.25 -5.32 18.4 0C13.25 3.75 4.6 4.69 0 0Z" fill="url(#l5)" stroke="#2a2f36" stroke-width=".7"/><path d="M1.5 0L15.64 -0.55" stroke="#2a2f36" stroke-opacity=".55" stroke-width=".7"/><path d="M3.68 -3.68Q9.2 -5.52 14.72 -2.21" fill="none" stroke="#ffffff" stroke-opacity=".75" stroke-width=".6"/></g><g transform="translate(41 187.29) rotate(-159.44)"><path d="M0 0C4.37 -5.95 12.6 -5.06 17.49 0C12.6 3.57 4.37 4.46 0 0Z" fill="url(#l5)" stroke="#2a2f36" stroke-width=".7"/><path d="M1.5 0L14.87 -0.52" stroke="#2a2f36" stroke-opacity=".55" stroke-width=".7"/><path d="M3.5 -3.5Q8.75 -5.25 14 -2.1" fill="none" stroke="#ffffff" stroke-opacity=".75" stroke-width=".6"/></g><g transform="translate(41 187.29) rotate(-90.23)"><path d="M0 0C4.37 -5.95 12.6 -5.06 17.49 0C12.6 3.57 4.37 4.46 0 0Z" fill="url(#l5)" stroke="#2a2f36" stroke-width=".7"/><path d="M1.5 0L14.87 -0.52" stroke="#2a2f36" stroke-opacity=".55" stroke-width=".7"/><path d="M3.5 -3.5Q8.75 -5.25 14 -2.1" fill="none" stroke="#ffffff" stroke-opacity=".75" stroke-width=".6"/></g><g transform="translate(36.2 179.49) rotate(-153.66)"><path d="M0 0C4.57 -6.22 13.17 -5.29 18.29 0C13.17 3.73 4.57 4.67 0 0Z" fill="url(#l5)" stroke="#2a2f36" stroke-width=".7"/><path d="M1.5 0L15.55 -0.55" stroke="#2a2f36" stroke-opacity=".55" stroke-width=".7"/><path d="M3.66 -3.66Q9.15 -5.49 14.64 -2.2" fill="none" stroke="#ffffff" stroke-opacity=".75" stroke-width=".6"/></g><g transform="translate(36.2 179.49) rotate(-79.92)"><path d="M0 0C4.57 -6.22 13.17 -5.29 18.29 0C13.17 3.73 4.57 4.67 0 0Z" fill="url(#l5)" stroke="#2a2f36" stroke-width=".7"/><path d="M1.5 0L15.55 -0.55" stroke="#2a2f36" stroke-opacity=".55" stroke-width=".7"/><path d="M3.66 -3.66Q9.15 -5.49 14.64 -2.2" fill="none" stroke="#ffffff" stroke-opacity=".75" stroke-width=".6"/></g><g transform="translate(32.19 170.82) rotate(-149.59)"><path d="M0 0C4.48 -6.09 12.9 -5.18 17.92 0C12.9 3.66 4.48 4.57 0 0Z" fill="url(#l5)" stroke="#2a2f36" stroke-width=".7"/><path d="M1.5 0L15.23 -0.54" stroke="#2a2f36" stroke-opacity=".55" stroke-width=".7"/><path d="M3.58 -3.58Q8.96 -5.38 14.34 -2.15" fill="none" stroke="#ffffff" stroke-opacity=".75" stroke-width=".6"/></g><g transform="translate(32.19 170.82) rotate(-77.7)"><path d="M0 0C4.48 -6.09 12.9 -5.18 17.92 0C12.9 3.66 4.48 4.57 0 0Z" fill="url(#l5)" stroke="#2a2f36" stroke-width=".7"/><path d="M1.5 0L15.23 -0.54" stroke="#2a2f36" stroke-opacity=".55" stroke-width=".7"/><path d="M3.58 -3.58Q8.96 -5.38 14.34 -2.15" fill="none" stroke="#ffffff" stroke-opacity=".75" stroke-width=".6"/></g><g transform="translate(28.96 161.33) rotate(-139.15)"><path d="M0 0C4 -5.44 11.52 -4.62 15.99 0C11.52 3.26 4 4.08 0 0Z" fill="url(#l5)" stroke="#2a2f36" stroke-width=".7"/><path d="M1.5 0L13.59 -0.48" stroke="#2a2f36" stroke-opacity=".55" stroke-width=".7"/><path d="M3.2 -3.2Q8 -4.8 12.79 -1.92" fill="none" stroke="#ffffff" stroke-opacity=".75" stroke-width=".6"/></g><g transform="translate(28.96 161.33) rotate(-71.05)"><path d="M0 0C4 -5.44 11.52 -4.62 15.99 0C11.52 3.26 4 4.08 0 0Z" fill="url(#l5)" stroke="#2a2f36" stroke-width=".7"/><path d="M1.5 0L13.59 -0.48" stroke="#2a2f36" stroke-opacity=".55" stroke-width=".7"/><path d="M3.2 -3.2Q8 -4.8 12.79 -1.92" fill="none" stroke="#ffffff" stroke-opacity=".75" stroke-width=".6"/></g><g transform="translate(26.5 151.1) rotate(-138.62)"><path d="M0 0C4.18 -5.69 12.05 -4.84 16.73 0C12.05 3.41 4.18 4.27 0 0Z" fill="url(#l5)" stroke="#2a2f36" stroke-width=".7"/><path d="M1.5 0L14.22 -0.5" stroke="#2a2f36" stroke-opacity=".55" stroke-width=".7"/><path d="M3.35 -3.35Q8.37 -5.02 13.39 -2.01" fill="none" stroke="#ffffff" stroke-opacity=".75" stroke-width=".6"/></g><g transform="translate(26.5 151.1) rotate(-66.15)"><path d="M0 0C4.18 -5.69 12.05 -4.84 16.73 0C12.05 3.41 4.18 4.27 0 0Z" fill="url(#l5)" stroke="#2a2f36" stroke-width=".7"/><path d="M1.5 0L14.22 -0.5" stroke="#2a2f36" stroke-opacity=".55" stroke-width=".7"/><path d="M3.35 -3.35Q8.37 -5.02 13.39 -2.01" fill="none" stroke="#ffffff" stroke-opacity=".75" stroke-width=".6"/></g><g transform="translate(24.78 140.19) rotate(-132.76)"><path d="M0 0C3.93 -5.34 11.31 -4.54 15.71 0C11.31 3.21 3.93 4.01 0 0Z" fill="url(#l5)" stroke="#2a2f36" stroke-width=".7"/><path d="M1.5 0L13.36 -0.47" stroke="#2a2f36" stroke-opacity=".55" stroke-width=".7"/><path d="M3.14 -3.14Q7.86 -4.71 12.57 -1.89" fill="none" stroke="#ffffff" stroke-opacity=".75" stroke-width=".6"/></g><g transform="translate(24.78 140.19) rotate(-60.82)"><path d="M0 0C3.93 -5.34 11.31 -4.54 15.71 0C11.31 3.21 3.93 4.01 0 0Z" fill="url(#l5)" stroke="#2a2f36" stroke-width=".7"/><path d="M1.5 0L13.36 -0.47" stroke="#2a2f36" stroke-opacity=".55" stroke-width=".7"/><path d="M3.14 -3.14Q7.86 -4.71 12.57 -1.89" fill="none" stroke="#ffffff" stroke-opacity=".75" stroke-width=".6"/></g><g transform="translate(23.81 128.66) rotate(-130.45)"><path d="M0 0C3.76 -5.11 10.82 -4.34 15.02 0C10.82 3.06 3.76 3.83 0 0Z" fill="url(#l5)" stroke="#2a2f36" stroke-width=".7"/><path d="M1.5 0L12.77 -0.45" stroke="#2a2f36" stroke-opacity=".55" stroke-width=".7"/><path d="M3 -3Q7.51 -4.51 12.02 -1.8" fill="none" stroke="#ffffff" stroke-opacity=".75" stroke-width=".6"/></g><g transform="translate(23.81 128.66) rotate(-59.56)"><path d="M0 0C3.76 -5.11 10.82 -4.34 15.02 0C10.82 3.06 3.76 3.83 0 0Z" fill="url(#l5)" stroke="#2a2f36" stroke-width=".7"/><path d="M1.5 0L12.77 -0.45" stroke="#2a2f36" stroke-opacity=".55" stroke-width=".7"/><path d="M3 -3Q7.51 -4.51 12.02 -1.8" fill="none" stroke="#ffffff" stroke-opacity=".75" stroke-width=".6"/></g><g transform="translate(23.55 116.58) rotate(-124.96)"><path d="M0 0C4.01 -5.46 11.56 -4.64 16.06 0C11.56 3.28 4.01 4.1 0 0Z" fill="url(#l5)" stroke="#2a2f36" stroke-width=".7"/><path d="M1.5 0L13.65 -0.48" stroke="#2a2f36" stroke-opacity=".55" stroke-width=".7"/><path d="M3.21 -3.21Q8.03 -4.82 12.85 -1.93" fill="none" stroke="#ffffff" stroke-opacity=".75" stroke-width=".6"/></g><g transform="translate(23.55 116.58) rotate(-52.67)"><path d="M0 0C4.01 -5.46 11.56 -4.64 16.06 0C11.56 3.28 4.01 4.1 0 0Z" fill="url(#l5)" stroke="#2a2f36" stroke-width=".7"/><path d="M1.5 0L13.65 -0.48" stroke="#2a2f36" stroke-opacity=".55" stroke-width=".7"/><path d="M3.21 -3.21Q8.03 -4.82 12.85 -1.93" fill="none" stroke="#ffffff" stroke-opacity=".75" stroke-width=".6"/></g><g transform="translate(24 104) rotate(-38.91)"><path d="M0 0C3.81 -5.18 10.97 -4.4 15.23 0C10.97 3.11 3.81 3.88 0 0Z" fill="url(#l5)" stroke="#2a2f36" stroke-width=".7"/><path d="M1.5 0L12.95 -0.46" stroke="#2a2f36" stroke-opacity=".55" stroke-width=".7"/><path d="M3.05 -3.05Q7.62 -4.57 12.19 -1.83" fill="none" stroke="#ffffff" stroke-opacity=".75" stroke-width=".6"/></g><g transform="translate(24 104) rotate(36.75)"><path d="M0 0C3.81 -5.18 10.97 -4.4 15.23 0C10.97 3.11 3.81 3.88 0 0Z" fill="url(#l5)" stroke="#2a2f36" stroke-width=".7"/><path d="M1.5 0L12.95 -0.46" stroke="#2a2f36" stroke-opacity=".55" stroke-width=".7"/><path d="M3.05 -3.05Q7.62 -4.57 12.19 -1.83" fill="none" stroke="#ffffff" stroke-opacity=".75" stroke-width=".6"/></g><g transform="translate(24 104) rotate(-98)"><path d="M0 0C3 -4 8.64 -3.4 12 0C8.64 2.4 3 3 0 0Z" fill="url(#l5)" stroke="#2a2f36" stroke-width=".7"/></g><path d="M158 212 L162.14 212.2 L166.15 212.21 L170.03 212.04 L173.79 211.68 L177.42 211.13 L180.93 210.41 L184.32 209.52 L187.58 208.45 L190.73 207.21 L193.75 205.81 L196.65 204.25 L199.44 202.53 L202.1 200.66 L204.65 198.63 L207.08 196.46 L209.39 194.14 L211.59 191.69 L213.67 189.09 L215.64 186.36 L217.5 183.5 L219.24 180.51 L220.88 177.4 L222.4 174.17 L223.81 170.82 L225.11 167.35 L226.3 163.78 L227.39 160.09 L228.36 156.31 L229.23 152.42 L230 148.44 L230.66 144.36 L231.22 140.19 L231.67 135.94 L232.02 131.6 L232.27 127.18 L232.41 122.68 L232.46 118.11 L232.4 113.48 L232.25 108.77 L232 104" fill="none" stroke="#2a2f36" stroke-width="1.6" stroke-linecap="round"/><g transform="translate(168.75 212.12) rotate(34.44)"><path d="M0 0C5.39 -7.33 15.52 -6.23 21.55 0C15.52 4.4 5.39 5.5 0 0Z" fill="url(#l5)" stroke="#2a2f36" stroke-width=".7"/><path d="M1.5 0L18.32 -0.65" stroke="#2a2f36" stroke-opacity=".55" stroke-width=".7"/><path d="M4.31 -4.31Q10.77 -6.46 17.24 -2.59" fill="none" stroke="#ffffff" stroke-opacity=".75" stroke-width=".6"/></g><g transform="translate(168.75 212.12) rotate(-39.47)"><path d="M0 0C5.39 -7.33 15.52 -6.23 21.55 0C15.52 4.4 5.39 5.5 0 0Z" fill="url(#l5)" stroke="#2a2f36" stroke-width=".7"/><path d="M1.5 0L18.32 -0.65" stroke="#2a2f36" stroke-opacity=".55" stroke-width=".7"/><path d="M4.31 -4.31Q10.77 -6.46 17.24 -2.59" fill="none" stroke="#ffffff" stroke-opacity=".75" stroke-width=".6"/></g><g transform="translate(178.61 210.91) rotate(26.71)"><path d="M0 0C5.2 -7.07 14.98 -6.01 20.81 0C14.98 4.24 5.2 5.31 0 0Z" fill="url(#l5)" stroke="#2a2f36" stroke-width=".7"/><path d="M1.5 0L17.69 -0.62" stroke="#2a2f36" stroke-opacity=".55" stroke-width=".7"/><path d="M4.16 -4.16Q10.4 -6.24 16.65 -2.5" fill="none" stroke="#ffffff" stroke-opacity=".75" stroke-width=".6"/></g><g transform="translate(178.61 210.91) rotate(-48.62)"><path d="M0 0C5.2 -7.07 14.98 -6.01 20.81 0C14.98 4.24 5.2 5.31 0 0Z" fill="url(#l5)" stroke="#2a2f36" stroke-width=".7"/><path d="M1.5 0L17.69 -0.62" stroke="#2a2f36" stroke-opacity=".55" stroke-width=".7"/><path d="M4.16 -4.16Q10.4 -6.24 16.65 -2.5" fill="none" stroke="#ffffff" stroke-opacity=".75" stroke-width=".6"/></g><g transform="translate(187.58 208.45) rotate(14.82)"><path d="M0 0C5 -6.8 14.41 -5.78 20.01 0C14.41 4.08 5 5.1 0 0Z" fill="url(#l5)" stroke="#2a2f36" stroke-width=".7"/><path d="M1.5 0L17.01 -0.6" stroke="#2a2f36" stroke-opacity=".55" stroke-width=".7"/><path d="M4 -4Q10 -6 16.01 -2.4" fill="none" stroke="#ffffff" stroke-opacity=".75" stroke-width=".6"/></g><g transform="translate(187.58 208.45) rotate(-57.87)"><path d="M0 0C5 -6.8 14.41 -5.78 20.01 0C14.41 4.08 5 5.1 0 0Z" fill="url(#l5)" stroke="#2a2f36" stroke-width=".7"/><path d="M1.5 0L17.01 -0.6" stroke="#2a2f36" stroke-opacity=".55" stroke-width=".7"/><path d="M4 -4Q10 -6 16.01 -2.4" fill="none" stroke="#ffffff" stroke-opacity=".75" stroke-width=".6"/></g><g transform="translate(195.7 204.79) rotate(9.23)"><path d="M0 0C4.85 -6.59 13.96 -5.6 19.39 0C13.96 3.96 4.85 4.95 0 0Z" fill="url(#l5)" stroke="#2a2f36" stroke-width=".7"/><path d="M1.5 0L16.48 -0.58" stroke="#2a2f36" stroke-opacity=".55" stroke-width=".7"/><path d="M3.88 -3.88Q9.7 -5.82 15.51 -2.33" fill="none" stroke="#ffffff" stroke-opacity=".75" stroke-width=".6"/></g><g transform="translate(195.7 204.79) rotate(-66.24)"><path d="M0 0C4.85 -6.59 13.96 -5.6 19.39 0C13.96 3.96 4.85 4.95 0 0Z" fill="url(#l5)" stroke="#2a2f36" stroke-width=".7"/><path d="M1.5 0L16.48 -0.58" stroke="#2a2f36" stroke-opacity=".55" stroke-width=".7"/><path d="M3.88 -3.88Q9.7 -5.82 15.51 -2.33" fill="none" stroke="#ffffff" stroke-opacity=".75" stroke-width=".6"/></g><g transform="translate(202.96 200) rotate(-1.39)"><path d="M0 0C4.72 -6.42 13.59 -5.45 18.87 0C13.59 3.85 4.72 4.81 0 0Z" fill="url(#l5)" stroke="#2a2f36" stroke-width=".7"/><path d="M1.5 0L16.04 -0.57" stroke="#2a2f36" stroke-opacity=".55" stroke-width=".7"/><path d="M3.77 -3.77Q9.44 -5.66 15.1 -2.26" fill="none" stroke="#ffffff" stroke-opacity=".75" stroke-width=".6"/></g><g transform="translate(202.96 200) rotate(-75.89)"><path d="M0 0C4.72 -6.42 13.59 -5.45 18.87 0C13.59 3.85 4.72 4.81 0 0Z" fill="url(#l5)" stroke="#2a2f36" stroke-width=".7"/><path d="M1.5 0L16.04 -0.57" stroke="#2a2f36" stroke-opacity=".55" stroke-width=".7"/><path d="M3.77 -3.77Q9.44 -5.66 15.1 -2.26" fill="none" stroke="#ffffff" stroke-opacity=".75" stroke-width=".6"/></g><g transform="translate(209.39 194.14) rotate(-13.83)"><path d="M0 0C4.39 -5.97 12.64 -5.07 17.55 0C12.64 3.58 4.39 4.48 0 0Z" fill="url(#l5)" stroke="#2a2f36" stroke-width=".7"/><path d="M1.5 0L14.92 -0.53" stroke="#2a2f36" stroke-opacity=".55" stroke-width=".7"/><path d="M3.51 -3.51Q8.78 -5.27 14.04 -2.11" fill="none" stroke="#ffffff" stroke-opacity=".75" stroke-width=".6"/></g><g transform="translate(209.39 194.14) rotate(-80.5)"><path d="M0 0C4.39 -5.97 12.64 -5.07 17.55 0C12.64 3.58 4.39 4.48 0 0Z" fill="url(#l5)" stroke="#2a2f36" stroke-width=".7"/><path d="M1.5 0L14.92 -0.53" stroke="#2a2f36" stroke-opacity=".55" stroke-width=".7"/><path d="M3.51 -3.51Q8.78 -5.27 14.04 -2.11" fill="none" stroke="#ffffff" stroke-opacity=".75" stroke-width=".6"/></g><g transform="translate(215 187.29) rotate(-20.34)"><path d="M0 0C4.7 -6.39 13.54 -5.43 18.8 0C13.54 3.84 4.7 4.79 0 0Z" fill="url(#l5)" stroke="#2a2f36" stroke-width=".7"/><path d="M1.5 0L15.98 -0.56" stroke="#2a2f36" stroke-opacity=".55" stroke-width=".7"/><path d="M3.76 -3.76Q9.4 -5.64 15.04 -2.26" fill="none" stroke="#ffffff" stroke-opacity=".75" stroke-width=".6"/></g><g transform="translate(215 187.29) rotate(-90.62)"><path d="M0 0C4.7 -6.39 13.54 -5.43 18.8 0C13.54 3.84 4.7 4.79 0 0Z" fill="url(#l5)" stroke="#2a2f36" stroke-width=".7"/><path d="M1.5 0L15.98 -0.56" stroke="#2a2f36" stroke-opacity=".55" stroke-width=".7"/><path d="M3.76 -3.76Q9.4 -5.64 15.04 -2.26" fill="none" stroke="#ffffff" stroke-opacity=".75" stroke-width=".6"/></g><g transform="translate(219.8 179.49) rotate(-25.99)"><path d="M0 0C4.21 -5.73 12.13 -4.87 16.85 0C12.13 3.44 4.21 4.3 0 0Z" fill="url(#l5)" stroke="#2a2f36" stroke-width=".7"/><path d="M1.5 0L14.32 -0.51" stroke="#2a2f36" stroke-opacity=".55" stroke-width=".7"/><path d="M3.37 -3.37Q8.43 -5.06 13.48 -2.02" fill="none" stroke="#ffffff" stroke-opacity=".75" stroke-width=".6"/></g><g transform="translate(219.8 179.49) rotate(-96.42)"><path d="M0 0C4.21 -5.73 12.13 -4.87 16.85 0C12.13 3.44 4.21 4.3 0 0Z" fill="url(#l5)" stroke="#2a2f36" stroke-width=".7"/><path d="M1.5 0L14.32 -0.51" stroke="#2a2f36" stroke-opacity=".55" stroke-width=".7"/><path d="M3.37 -3.37Q8.43 -5.06 13.48 -2.02" fill="none" stroke="#ffffff" stroke-opacity=".75" stroke-width=".6"/></g><g transform="translate(223.81 170.82) rotate(-32.44)"><path d="M0 0C4.17 -5.67 12 -4.82 16.66 0C12 3.4 4.17 4.25 0 0Z" fill="url(#l5)" stroke="#2a2f36" stroke-width=".7"/><path d="M1.5 0L14.16 -0.5" stroke="#2a2f36" stroke-opacity=".55" stroke-width=".7"/><path d="M3.33 -3.33Q8.33 -5 13.33 -2" fill="none" stroke="#ffffff" stroke-opacity=".75" stroke-width=".6"/></g><g transform="translate(223.81 170.82) rotate(-105.08)"><path d="M0 0C4.17 -5.67 12 -4.82 16.66 0C12 3.4 4.17 4.25 0 0Z" fill="url(#l5)" stroke="#2a2f36" stroke-width=".7"/><path d="M1.5 0L14.16 -0.5" stroke="#2a2f36" stroke-opacity=".55" stroke-width=".7"/><path d="M3.33 -3.33Q8.33 -5 13.33 -2" fill="none" stroke="#ffffff" stroke-opacity=".75" stroke-width=".6"/></g><g transform="translate(227.04 161.33) rotate(-39.53)"><path d="M0 0C4.12 -5.61 11.87 -4.77 16.49 0C11.87 3.36 4.12 4.2 0 0Z" fill="url(#l5)" stroke="#2a2f36" stroke-width=".7"/><path d="M1.5 0L14.02 -0.49" stroke="#2a2f36" stroke-opacity=".55" stroke-width=".7"/><path d="M3.3 -3.3Q8.24 -4.95 13.19 -1.98" fill="none" stroke="#ffffff" stroke-opacity=".75" stroke-width=".6"/></g><g transform="translate(227.04 161.33) rotate(-109.3)"><path d="M0 0C4.12 -5.61 11.87 -4.77 16.49 0C11.87 3.36 4.12 4.2 0 0Z" fill="url(#l5)" stroke="#2a2f36" stroke-width=".7"/><path d="M1.5 0L14.02 -0.49" stroke="#2a2f36" stroke-opacity=".55" stroke-width=".7"/><path d="M3.3 -3.3Q8.24 -4.95 13.19 -1.98" fill="none" stroke="#ffffff" stroke-opacity=".75" stroke-width=".6"/></g><g transform="translate(229.5 151.1) rotate(-44.72)"><path d="M0 0C3.95 -5.37 11.38 -4.57 15.8 0C11.38 3.22 3.95 4.03 0 0Z" fill="url(#l5)" stroke="#2a2f36" stroke-width=".7"/><path d="M1.5 0L13.43 -0.47" stroke="#2a2f36" stroke-opacity=".55" stroke-width=".7"/><path d="M3.16 -3.16Q7.9 -4.74 12.64 -1.9" fill="none" stroke="#ffffff" stroke-opacity=".75" stroke-width=".6"/></g><g transform="translate(229.5 151.1) rotate(-115.37)"><path d="M0 0C3.95 -5.37 11.38 -4.57 15.8 0C11.38 3.22 3.95 4.03 0 0Z" fill="url(#l5)" stroke="#2a2f36" stroke-width=".7"/><path d="M1.5 0L13.43 -0.47" stroke="#2a2f36" stroke-opacity=".55" stroke-width=".7"/><path d="M3.16 -3.16Q7.9 -4.74 12.64 -1.9" fill="none" stroke="#ffffff" stroke-opacity=".75" stroke-width=".6"/></g><g transform="translate(231.22 140.19) rotate(-50.13)"><path d="M0 0C4.22 -5.73 12.14 -4.87 16.86 0C12.14 3.44 4.22 4.3 0 0Z" fill="url(#l5)" stroke="#2a2f36" stroke-width=".7"/><path d="M1.5 0L14.33 -0.51" stroke="#2a2f36" stroke-opacity=".55" stroke-width=".7"/><path d="M3.37 -3.37Q8.43 -5.06 13.49 -2.02" fill="none" stroke="#ffffff" stroke-opacity=".75" stroke-width=".6"/></g><g transform="translate(231.22 140.19) rotate(-116.51)"><path d="M0 0C4.22 -5.73 12.14 -4.87 16.86 0C12.14 3.44 4.22 4.3 0 0Z" fill="url(#l5)" stroke="#2a2f36" stroke-width=".7"/><path d="M1.5 0L14.33 -0.51" stroke="#2a2f36" stroke-opacity=".55" stroke-width=".7"/><path d="M3.37 -3.37Q8.43 -5.06 13.49 -2.02" fill="none" stroke="#ffffff" stroke-opacity=".75" stroke-width=".6"/></g><g transform="translate(232.19 128.66) rotate(-50.36)"><path d="M0 0C4.18 -5.68 12.03 -4.83 16.7 0C12.03 3.41 4.18 4.26 0 0Z" fill="url(#l5)" stroke="#2a2f36" stroke-width=".7"/><path d="M1.5 0L14.2 -0.5" stroke="#2a2f36" stroke-opacity=".55" stroke-width=".7"/><path d="M3.34 -3.34Q8.35 -5.01 13.36 -2" fill="none" stroke="#ffffff" stroke-opacity=".75" stroke-width=".6"/></g><g transform="translate(232.19 128.66) rotate(-125.02)"><path d="M0 0C4.18 -5.68 12.03 -4.83 16.7 0C12.03 3.41 4.18 4.26 0 0Z" fill="url(#l5)" stroke="#2a2f36" stroke-width=".7"/><path d="M1.5 0L14.2 -0.5" stroke="#2a2f36" stroke-opacity=".55" stroke-width=".7"/><path d="M3.34 -3.34Q8.35 -5.01 13.36 -2" fill="none" stroke="#ffffff" stroke-opacity=".75" stroke-width=".6"/></g><g transform="translate(232.45 116.58) rotate(-52.59)"><path d="M0 0C3.87 -5.27 11.15 -4.48 15.49 0C11.15 3.16 3.87 3.95 0 0Z" fill="url(#l5)" stroke="#2a2f36" stroke-width=".7"/><path d="M1.5 0L13.16 -0.46" stroke="#2a2f36" stroke-opacity=".55" stroke-width=".7"/><path d="M3.1 -3.1Q7.74 -4.65 12.39 -1.86" fill="none" stroke="#ffffff" stroke-opacity=".75" stroke-width=".6"/></g><g transform="translate(232.45 116.58) rotate(-125.21)"><path d="M0 0C3.87 -5.27 11.15 -4.48 15.49 0C11.15 3.16 3.87 3.95 0 0Z" fill="url(#l5)" stroke="#2a2f36" stroke-width=".7"/><path d="M1.5 0L13.16 -0.46" stroke="#2a2f36" stroke-opacity=".55" stroke-width=".7"/><path d="M3.1 -3.1Q7.74 -4.65 12.39 -1.86" fill="none" stroke="#ffffff" stroke-opacity=".75" stroke-width=".6"/></g><g transform="translate(232 104) rotate(33.15)"><path d="M0 0C3.6 -4.9 10.38 -4.17 14.41 0C10.38 2.94 3.6 3.68 0 0Z" fill="url(#l5)" stroke="#2a2f36" stroke-width=".7"/><path d="M1.5 0L12.25 -0.43" stroke="#2a2f36" stroke-opacity=".55" stroke-width=".7"/><path d="M2.88 -2.88Q7.21 -4.32 11.53 -1.73" fill="none" stroke="#ffffff" stroke-opacity=".75" stroke-width=".6"/></g><g transform="translate(232 104) rotate(-35.34)"><path d="M0 0C3.6 -4.9 10.38 -4.17 14.41 0C10.38 2.94 3.6 3.68 0 0Z" fill="url(#l5)" stroke="#2a2f36" stroke-width=".7"/><path d="M1.5 0L12.25 -0.43" stroke="#2a2f36" stroke-opacity=".55" stroke-width=".7"/><path d="M2.88 -2.88Q7.21 -4.32 11.53 -1.73" fill="none" stroke="#ffffff" stroke-opacity=".75" stroke-width=".6"/></g><g transform="translate(232 104) rotate(-82)"><path d="M0 0C3 -4 8.64 -3.4 12 0C8.64 2.4 3 3 0 0Z" fill="url(#l5)" stroke="#2a2f36" stroke-width=".7"/></g></g><path d="M66 46H190V112C190 160 160 188 128 202C96 188 66 160 66 112Z" fill="url(#l6)" filter="url(#ds)"/><path d="M66 46H190V112C190 160 160 188 128 202C96 188 66 160 66 112Z" fill="none" stroke="#2a2f36" stroke-width="1.8"/><path d="M66 46H190V112C190 160 160 188 128 202C96 188 66 160 66 112Z" fill="none" stroke="#ffffff" stroke-opacity=".85" stroke-width="1.1" transform="translate(128 124) scale(0.985) translate(-128 -124)"/><path d="M66 46H190V112C190 160 160 188 128 202C96 188 66 160 66 112Z" fill="none" stroke="#2a2f36" stroke-opacity=".55" stroke-width="1.1" transform="translate(128 124) scale(0.955) translate(-128 -124)"/><circle cx="70.94" cy="52.46" r="2.5" fill="#11141a" opacity=".55"/><circle cx="70.34" cy="51.46" r="2.5" fill="url(#r7)"/><circle cx="82.9" cy="52.46" r="2.5" fill="#11141a" opacity=".55"/><circle cx="82.3" cy="51.46" r="2.5" fill="url(#r7)"/><circle cx="94.85" cy="52.46" r="2.5" fill="#11141a" opacity=".55"/><circle cx="94.25" cy="51.46" r="2.5" fill="url(#r7)"/><circle cx="106.81" cy="52.46" r="2.5" fill="#11141a" opacity=".55"/><circle cx="106.21" cy="51.46" r="2.5" fill="url(#r7)"/><circle cx="118.76" cy="52.46" r="2.5" fill="#11141a" opacity=".55"/><circle cx="118.16" cy="51.46" r="2.5" fill="url(#r7)"/><circle cx="130.72" cy="52.46" r="2.5" fill="#11141a" opacity=".55"/><circle cx="130.12" cy="51.46" r="2.5" fill="url(#r7)"/><circle cx="142.68" cy="52.46" r="2.5" fill="#11141a" opacity=".55"/><circle cx="142.08" cy="51.46" r="2.5" fill="url(#r7)"/><circle cx="154.63" cy="52.46" r="2.5" fill="#11141a" opacity=".55"/><circle cx="154.03" cy="51.46" r="2.5" fill="url(#r7)"/><circle cx="166.59" cy="52.46" r="2.5" fill="#11141a" opacity=".55"/><circle cx="165.99" cy="51.46" r="2.5" fill="url(#r7)"/><circle cx="178.54" cy="52.46" r="2.5" fill="#11141a" opacity=".55"/><circle cx="177.94" cy="51.46" r="2.5" fill="url(#r7)"/><circle cx="186.26" cy="56.7" r="2.5" fill="#11141a" opacity=".55"/><circle cx="185.66" cy="55.7" r="2.5" fill="url(#r7)"/><circle cx="186.26" cy="68.66" r="2.5" fill="#11141a" opacity=".55"/><circle cx="185.66" cy="67.66" r="2.5" fill="url(#r7)"/><circle cx="186.26" cy="80.61" r="2.5" fill="#11141a" opacity=".55"/><circle cx="185.66" cy="79.61" r="2.5" fill="url(#r7)"/><circle cx="186.26" cy="92.57" r="2.5" fill="#11141a" opacity=".55"/><circle cx="185.66" cy="91.57" r="2.5" fill="url(#r7)"/><circle cx="186.26" cy="104.53" r="2.5" fill="#11141a" opacity=".55"/><circle cx="185.66" cy="103.53" r="2.5" fill="url(#r7)"/><circle cx="186.23" cy="116.48" r="2.5" fill="#11141a" opacity=".55"/><circle cx="185.63" cy="115.48" r="2.5" fill="url(#r7)"/><circle cx="185.21" cy="128.39" r="2.5" fill="#11141a" opacity=".55"/><circle cx="184.61" cy="127.39" r="2.5" fill="url(#r7)"/><circle cx="182.66" cy="140.06" r="2.5" fill="#11141a" opacity=".55"/><circle cx="182.06" cy="139.06" r="2.5" fill="url(#r7)"/><circle cx="178.5" cy="151.25" r="2.5" fill="#11141a" opacity=".55"/><circle cx="177.9" cy="150.25" r="2.5" fill="url(#r7)"/><circle cx="172.74" cy="161.72" r="2.5" fill="#11141a" opacity=".55"/><circle cx="172.14" cy="160.72" r="2.5" fill="url(#r7)"/><circle cx="165.53" cy="171.25" r="2.5" fill="#11141a" opacity=".55"/><circle cx="164.93" cy="170.25" r="2.5" fill="url(#r7)"/><circle cx="157.09" cy="179.7" r="2.5" fill="#11141a" opacity=".55"/><circle cx="156.49" cy="178.7" r="2.5" fill="url(#r7)"/><circle cx="147.65" cy="187.03" r="2.5" fill="#11141a" opacity=".55"/><circle cx="147.05" cy="186.03" r="2.5" fill="url(#r7)"/><circle cx="137.44" cy="193.24" r="2.5" fill="#11141a" opacity=".55"/><circle cx="136.84" cy="192.24" r="2.5" fill="url(#r7)"/><circle cx="126.66" cy="196.67" r="2.5" fill="#11141a" opacity=".55"/><circle cx="126.06" cy="195.67" r="2.5" fill="url(#r7)"/><circle cx="116.06" cy="191.16" r="2.5" fill="#11141a" opacity=".55"/><circle cx="115.46" cy="190.16" r="2.5" fill="url(#r7)"/><circle cx="106.1" cy="184.56" r="2.5" fill="#11141a" opacity=".55"/><circle cx="105.5" cy="183.56" r="2.5" fill="url(#r7)"/><circle cx="96.99" cy="176.83" r="2.5" fill="#11141a" opacity=".55"/><circle cx="96.39" cy="175.83" r="2.5" fill="url(#r7)"/><circle cx="88.96" cy="167.99" r="2.5" fill="#11141a" opacity=".55"/><circle cx="88.36" cy="166.99" r="2.5" fill="url(#r7)"/><circle cx="82.24" cy="158.11" r="2.5" fill="#11141a" opacity=".55"/><circle cx="81.64" cy="157.11" r="2.5" fill="url(#r7)"/><circle cx="77.04" cy="147.35" r="2.5" fill="#11141a" opacity=".55"/><circle cx="76.44" cy="146.35" r="2.5" fill="url(#r7)"/><circle cx="73.45" cy="135.96" r="2.5" fill="#11141a" opacity=".55"/><circle cx="72.85" cy="134.96" r="2.5" fill="url(#r7)"/><circle cx="71.46" cy="124.18" r="2.5" fill="#11141a" opacity=".55"/><circle cx="70.86" cy="123.18" r="2.5" fill="url(#r7)"/><circle cx="70.94" cy="112.24" r="2.5" fill="#11141a" opacity=".55"/><circle cx="70.34" cy="111.24" r="2.5" fill="url(#r7)"/><circle cx="70.94" cy="100.28" r="2.5" fill="#11141a" opacity=".55"/><circle cx="70.34" cy="99.28" r="2.5" fill="url(#r7)"/><circle cx="70.94" cy="88.33" r="2.5" fill="#11141a" opacity=".55"/><circle cx="70.34" cy="87.33" r="2.5" fill="url(#r7)"/><circle cx="70.94" cy="76.37" r="2.5" fill="#11141a" opacity=".55"/><circle cx="70.34" cy="75.37" r="2.5" fill="url(#r7)"/><circle cx="70.94" cy="64.42" r="2.5" fill="#11141a" opacity=".55"/><circle cx="70.34" cy="63.42" r="2.5" fill="url(#r7)"/><g transform="translate(128 124) scale(0.83) translate(-128 -124)"><path d="M66 46H190V112C190 160 160 188 128 202C96 188 66 160 66 112Z" fill="url(#r8)"/><path d="M66 46H190V112C190 160 160 188 128 202C96 188 66 160 66 112Z" fill="url(#r9)"/><path d="M66 46H190V112C190 160 160 188 128 202C96 188 66 160 66 112Z" fill="none" stroke="url(#l10)" stroke-width="3"/></g><path d="M77.28 60.2 L78.95 60.2 L80.61 60.2 L82.28 60.2 L83.94 60.2 L85.61 60.2 L87.27 60.2 L88.94 60.2 L90.6 60.2 L92.27 60.2 L93.93 60.2 L95.6 60.2 L97.26 60.2 L98.93 60.2 L100.59 60.2 L102.26 60.2 L103.93 60.2 L105.59 60.2 L107.26 60.2 L108.92 60.2 L110.59 60.2 L112.25 60.2 L113.92 60.2 L115.58 60.2 L117.25 60.2 L118.91 60.2 L120.58 60.2 L122.24 60.2 L123.91 60.2 L125.57 60.2 L127.24 60.2 L128.9 60.2 L130.57 60.2 L132.23 60.2 L133.9 60.2 L135.56 60.2 L137.23 60.2 L138.89 60.2 L140.56 60.2 L142.22 60.2 L143.89 60.2 L145.55 60.2 L147.22 60.2 L148.88 60.2 L150.55 60.2 L152.21 60.2 L153.88 60.2 L155.54 60.2 L157.21 60.2 L158.87 60.2 L160.54 60.2 L162.2 60.2 L163.87 60.2 L165.53 60.2 L167.2 60.2 L168.86 60.2 L170.53 60.2 L172.19 60.2 L173.86 60.2 L175.52 60.2 L177.19 60.2 L178.72 60.33 L178.72 62 L178.72 63.66 L178.72 65.33 L178.72 66.99 L178.72 68.66 L178.72 70.32 L178.72 71.99 L178.72 73.65 L178.72 75.32 L178.72 76.98 L178.72 78.65 L178.72 80.31 L178.72 81.98 L178.72 83.64 L178.72 85.31 L178.72 86.97 L178.72 88.64 L178.72 90.3 L178.72 91.97 L178.72 93.63 L178.72 95.3 L178.72 96.96 L178.72 98.63 L178.72 100.29 L178.72 101.96 L178.72 103.63 L178.72 105.29 L178.72 106.96 L178.72 108.62 L178.72 110.29 L178.72 111.95 L178.72 113.62 L178.71 115.28 L178.67 116.95 L178.61 118.61 L178.51 120.27 L178.39 121.93 L178.23 123.59 L178.03 125.24 L177.81 126.89 L177.54 128.54 L177.25 130.18 L176.92 131.81 L176.56 133.43 L176.16 135.05 L175.72 136.66 L175.25 138.25 L174.74 139.84 L174.2 141.41 L173.62 142.97 L173.01 144.52 L172.36 146.05 L171.67 147.57 L170.95 149.07 L170.19 150.55 L169.4 152.02 L168.58 153.47 L167.72 154.89 L166.83 156.3 L165.9 157.69 L164.95 159.05 L163.96 160.39 L162.95 161.71 L161.9 163.01 L160.83 164.28 L159.73 165.53 L158.6 166.76 L157.45 167.96 L156.27 169.13 L155.07 170.28 L153.84 171.41 L152.6 172.51 L151.33 173.59 L150.04 174.64 L148.73 175.67 L147.4 176.67 L146.05 177.65 L144.68 178.61 L143.3 179.53 L141.9 180.44 L140.49 181.32 L139.06 182.17 L137.62 183.01 L136.16 183.81 L134.69 184.6 L133.21 185.36 L131.72 186.09 L130.21 186.81 L128.7 187.5 L127.18 187.44 L125.66 186.75 L124.16 186.03 L122.67 185.29 L121.18 184.53 L119.72 183.75 L118.26 182.94 L116.82 182.1 L115.39 181.25 L113.98 180.37 L112.58 179.46 L111.2 178.53 L109.84 177.57 L108.49 176.59 L107.17 175.59 L105.86 174.56 L104.57 173.5 L103.3 172.42 L102.05 171.32 L100.83 170.19 L99.63 169.04 L98.45 167.86 L97.3 166.66 L96.18 165.43 L95.08 164.18 L94.01 162.9 L92.97 161.6 L91.95 160.28 L90.97 158.94 L90.02 157.57 L89.1 156.18 L88.21 154.78 L87.35 153.35 L86.53 151.9 L85.74 150.43 L84.99 148.95 L84.27 147.45 L83.59 145.93 L82.94 144.39 L82.33 142.85 L81.75 141.28 L81.21 139.71 L80.71 138.12 L80.24 136.52 L79.81 134.92 L79.41 133.3 L79.05 131.67 L78.72 130.04 L78.43 128.4 L78.17 126.76 L77.95 125.11 L77.76 123.45 L77.6 121.79 L77.48 120.13 L77.38 118.47 L77.32 116.81 L77.29 115.14 L77.28 113.48 L77.28 111.81 L77.28 110.15 L77.28 108.48 L77.28 106.82 L77.28 105.15 L77.28 103.49 L77.28 101.82 L77.28 100.16 L77.28 98.49 L77.28 96.83 L77.28 95.16 L77.28 93.5 L77.28 91.83 L77.28 90.17 L77.28 88.5 L77.28 86.84 L77.28 85.17 L77.28 83.51 L77.28 81.84 L77.28 80.18 L77.28 78.51 L77.28 76.85 L77.28 75.18 L77.28 73.52 L77.28 71.85 L77.28 70.19 L77.28 68.52 L77.28 66.86 L77.28 65.19 L77.28 63.53 L77.28 61.86Z" fill="none" stroke="#2a2f36" stroke-opacity=".6" stroke-width="2.2"/><path d="M77.28 60.2 L78.95 60.2 L80.61 60.2 L82.28 60.2 L83.94 60.2 L85.61 60.2 L87.27 60.2 L88.94 60.2 L90.6 60.2 L92.27 60.2 L93.93 60.2 L95.6 60.2 L97.26 60.2 L98.93 60.2 L100.59 60.2 L102.26 60.2 L103.93 60.2 L105.59 60.2 L107.26 60.2 L108.92 60.2 L110.59 60.2 L112.25 60.2 L113.92 60.2 L115.58 60.2 L117.25 60.2 L118.91 60.2 L120.58 60.2 L122.24 60.2 L123.91 60.2 L125.57 60.2 L127.24 60.2 L128.9 60.2 L130.57 60.2 L132.23 60.2 L133.9 60.2 L135.56 60.2 L137.23 60.2 L138.89 60.2 L140.56 60.2 L142.22 60.2 L143.89 60.2 L145.55 60.2 L147.22 60.2 L148.88 60.2 L150.55 60.2 L152.21 60.2 L153.88 60.2 L155.54 60.2 L157.21 60.2 L158.87 60.2 L160.54 60.2 L162.2 60.2 L163.87 60.2 L165.53 60.2 L167.2 60.2 L168.86 60.2 L170.53 60.2 L172.19 60.2 L173.86 60.2 L175.52 60.2 L177.19 60.2 L178.72 60.33 L178.72 62 L178.72 63.66 L178.72 65.33 L178.72 66.99 L178.72 68.66 L178.72 70.32 L178.72 71.99 L178.72 73.65 L178.72 75.32 L178.72 76.98 L178.72 78.65 L178.72 80.31 L178.72 81.98 L178.72 83.64 L178.72 85.31 L178.72 86.97 L178.72 88.64 L178.72 90.3 L178.72 91.97 L178.72 93.63 L178.72 95.3 L178.72 96.96 L178.72 98.63 L178.72 100.29 L178.72 101.96 L178.72 103.63 L178.72 105.29 L178.72 106.96 L178.72 108.62 L178.72 110.29 L178.72 111.95 L178.72 113.62 L178.71 115.28 L178.67 116.95 L178.61 118.61 L178.51 120.27 L178.39 121.93 L178.23 123.59 L178.03 125.24 L177.81 126.89 L177.54 128.54 L177.25 130.18 L176.92 131.81 L176.56 133.43 L176.16 135.05 L175.72 136.66 L175.25 138.25 L174.74 139.84 L174.2 141.41 L173.62 142.97 L173.01 144.52 L172.36 146.05 L171.67 147.57 L170.95 149.07 L170.19 150.55 L169.4 152.02 L168.58 153.47 L167.72 154.89 L166.83 156.3 L165.9 157.69 L164.95 159.05 L163.96 160.39 L162.95 161.71 L161.9 163.01 L160.83 164.28 L159.73 165.53 L158.6 166.76 L157.45 167.96 L156.27 169.13 L155.07 170.28 L153.84 171.41 L152.6 172.51 L151.33 173.59 L150.04 174.64 L148.73 175.67 L147.4 176.67 L146.05 177.65 L144.68 178.61 L143.3 179.53 L141.9 180.44 L140.49 181.32 L139.06 182.17 L137.62 183.01 L136.16 183.81 L134.69 184.6 L133.21 185.36 L131.72 186.09 L130.21 186.81 L128.7 187.5 L127.18 187.44 L125.66 186.75 L124.16 186.03 L122.67 185.29 L121.18 184.53 L119.72 183.75 L118.26 182.94 L116.82 182.1 L115.39 181.25 L113.98 180.37 L112.58 179.46 L111.2 178.53 L109.84 177.57 L108.49 176.59 L107.17 175.59 L105.86 174.56 L104.57 173.5 L103.3 172.42 L102.05 171.32 L100.83 170.19 L99.63 169.04 L98.45 167.86 L97.3 166.66 L96.18 165.43 L95.08 164.18 L94.01 162.9 L92.97 161.6 L91.95 160.28 L90.97 158.94 L90.02 157.57 L89.1 156.18 L88.21 154.78 L87.35 153.35 L86.53 151.9 L85.74 150.43 L84.99 148.95 L84.27 147.45 L83.59 145.93 L82.94 144.39 L82.33 142.85 L81.75 141.28 L81.21 139.71 L80.71 138.12 L80.24 136.52 L79.81 134.92 L79.41 133.3 L79.05 131.67 L78.72 130.04 L78.43 128.4 L78.17 126.76 L77.95 125.11 L77.76 123.45 L77.6 121.79 L77.48 120.13 L77.38 118.47 L77.32 116.81 L77.29 115.14 L77.28 113.48 L77.28 111.81 L77.28 110.15 L77.28 108.48 L77.28 106.82 L77.28 105.15 L77.28 103.49 L77.28 101.82 L77.28 100.16 L77.28 98.49 L77.28 96.83 L77.28 95.16 L77.28 93.5 L77.28 91.83 L77.28 90.17 L77.28 88.5 L77.28 86.84 L77.28 85.17 L77.28 83.51 L77.28 81.84 L77.28 80.18 L77.28 78.51 L77.28 76.85 L77.28 75.18 L77.28 73.52 L77.28 71.85 L77.28 70.19 L77.28 68.52 L77.28 66.86 L77.28 65.19 L77.28 63.53 L77.28 61.86Z" fill="none" stroke="#ffffff" stroke-opacity=".8" stroke-width="1" transform="translate(-.5 -.6)"/><path d="M79.64 63.16 L81.62 64.22 L83.61 64.66 L85.59 64.22 L87.58 63.16 L89.56 62.1 L91.55 61.66 L93.53 62.1 L95.52 63.16 L97.5 64.22 L99.49 64.66 L101.47 64.22 L103.46 63.16 L105.44 62.1 L107.43 61.66 L109.41 62.1 L111.39 63.16 L113.38 64.22 L115.36 64.66 L117.35 64.22 L119.33 63.16 L121.32 62.1 L123.3 61.66 L125.29 62.1 L127.27 63.16 L129.26 64.22 L131.24 64.66 L133.23 64.22 L135.21 63.16 L137.19 62.1 L139.18 61.66 L141.16 62.1 L143.15 63.16 L145.13 64.22 L147.12 64.66 L149.1 64.22 L151.09 63.16 L153.07 62.1 L155.06 61.66 L157.04 62.1 L159.03 63.16 L161.01 64.22 L163 64.66 L164.98 64.22 L166.96 63.16 L168.95 62.1 L170.93 61.66 L172.92 62.1 L174.9 63.16 L175.3 63.69 L174.86 65.67 L175.3 67.66 L176.36 69.64 L177.42 71.63 L177.86 73.61 L177.42 75.6 L176.36 77.58 L175.3 79.56 L174.86 81.55 L175.3 83.53 L176.36 85.52 L177.42 87.5 L177.86 89.49 L177.42 91.47 L176.36 93.46 L175.3 95.44 L174.86 97.43 L175.3 99.41 L176.36 101.4 L177.42 103.38 L177.86 105.37 L177.42 107.35 L176.36 109.33 L175.3 111.32 L174.86 113.3 L175.3 115.28 L176.32 117.27 L177.3 119.32 L177.6 121.36 L176.99 123.32 L175.71 125.18 L174.39 126.98 L173.63 128.84 L173.69 130.84 L174.3 132.99 L174.84 135.19 L174.72 137.26 L173.7 139.05 L172.06 140.6 L170.37 142.08 L169.23 143.71 L168.84 145.67 L168.95 147.91 L168.98 150.17 L168.39 152.15 L166.98 153.67 L165.02 154.8 L163.05 155.84 L161.56 157.17 L160.73 159 L160.33 161.19 L159.84 163.41 L158.82 165.21 L157.12 166.37 L154.96 167.04 L152.8 167.63 L151.06 168.61 L149.87 170.22 L149.01 172.29 L148.09 174.36 L146.74 175.91 L144.84 176.72 L142.59 176.95 L140.36 177.13 L138.46 177.78 L136.99 179.15 L135.78 181.03 L134.52 182.91 L132.92 184.21 L130.92 184.68 L128.67 184.55 L127.29 183.36 L125.69 182.14 L123.74 181.68 L121.5 181.72 L119.24 181.71 L117.27 181.1 L115.76 179.7 L114.63 177.75 L113.56 175.78 L112.19 174.31 L110.35 173.53 L108.13 173.19 L105.91 172.79 L104.08 171.84 L102.85 170.18 L102.09 168.04 L101.42 165.92 L100.36 164.21 L98.71 163.08 L96.61 162.31 L94.51 161.45 L92.92 160.14 L92.06 158.26 L91.78 156.01 L91.58 153.78 L90.93 151.9 L89.58 150.44 L87.71 149.2 L85.86 147.9 L84.6 146.24 L84.21 144.22 L84.45 141.97 L84.77 139.75 L84.57 137.77 L83.59 136.03 L82.05 134.41 L80.55 132.72 L79.69 130.84 L79.76 128.77 L80.49 126.63 L81.28 124.53 L81.51 122.55 L80.91 120.64 L79.74 118.73 L78.61 116.77 L78.14 114.77 L78.58 112.78 L79.64 110.79 L80.7 108.81 L81.14 106.82 L80.7 104.84 L79.64 102.85 L78.58 100.87 L78.14 98.88 L78.58 96.9 L79.64 94.91 L80.7 92.93 L81.14 90.95 L80.7 88.96 L79.64 86.98 L78.58 84.99 L78.14 83.01 L78.58 81.02 L79.64 79.04 L80.7 77.05 L81.14 75.07 L80.7 73.08 L79.64 71.1 L78.58 69.11 L78.14 67.13 L78.58 65.14Z" fill="none" stroke="#ffffff" stroke-opacity=".55" stroke-width="1" transform="translate(.5 .7)"/><path d="M79.64 63.16 L81.62 64.22 L83.61 64.66 L85.59 64.22 L87.58 63.16 L89.56 62.1 L91.55 61.66 L93.53 62.1 L95.52 63.16 L97.5 64.22 L99.49 64.66 L101.47 64.22 L103.46 63.16 L105.44 62.1 L107.43 61.66 L109.41 62.1 L111.39 63.16 L113.38 64.22 L115.36 64.66 L117.35 64.22 L119.33 63.16 L121.32 62.1 L123.3 61.66 L125.29 62.1 L127.27 63.16 L129.26 64.22 L131.24 64.66 L133.23 64.22 L135.21 63.16 L137.19 62.1 L139.18 61.66 L141.16 62.1 L143.15 63.16 L145.13 64.22 L147.12 64.66 L149.1 64.22 L151.09 63.16 L153.07 62.1 L155.06 61.66 L157.04 62.1 L159.03 63.16 L161.01 64.22 L163 64.66 L164.98 64.22 L166.96 63.16 L168.95 62.1 L170.93 61.66 L172.92 62.1 L174.9 63.16 L175.3 63.69 L174.86 65.67 L175.3 67.66 L176.36 69.64 L177.42 71.63 L177.86 73.61 L177.42 75.6 L176.36 77.58 L175.3 79.56 L174.86 81.55 L175.3 83.53 L176.36 85.52 L177.42 87.5 L177.86 89.49 L177.42 91.47 L176.36 93.46 L175.3 95.44 L174.86 97.43 L175.3 99.41 L176.36 101.4 L177.42 103.38 L177.86 105.37 L177.42 107.35 L176.36 109.33 L175.3 111.32 L174.86 113.3 L175.3 115.28 L176.32 117.27 L177.3 119.32 L177.6 121.36 L176.99 123.32 L175.71 125.18 L174.39 126.98 L173.63 128.84 L173.69 130.84 L174.3 132.99 L174.84 135.19 L174.72 137.26 L173.7 139.05 L172.06 140.6 L170.37 142.08 L169.23 143.71 L168.84 145.67 L168.95 147.91 L168.98 150.17 L168.39 152.15 L166.98 153.67 L165.02 154.8 L163.05 155.84 L161.56 157.17 L160.73 159 L160.33 161.19 L159.84 163.41 L158.82 165.21 L157.12 166.37 L154.96 167.04 L152.8 167.63 L151.06 168.61 L149.87 170.22 L149.01 172.29 L148.09 174.36 L146.74 175.91 L144.84 176.72 L142.59 176.95 L140.36 177.13 L138.46 177.78 L136.99 179.15 L135.78 181.03 L134.52 182.91 L132.92 184.21 L130.92 184.68 L128.67 184.55 L127.29 183.36 L125.69 182.14 L123.74 181.68 L121.5 181.72 L119.24 181.71 L117.27 181.1 L115.76 179.7 L114.63 177.75 L113.56 175.78 L112.19 174.31 L110.35 173.53 L108.13 173.19 L105.91 172.79 L104.08 171.84 L102.85 170.18 L102.09 168.04 L101.42 165.92 L100.36 164.21 L98.71 163.08 L96.61 162.31 L94.51 161.45 L92.92 160.14 L92.06 158.26 L91.78 156.01 L91.58 153.78 L90.93 151.9 L89.58 150.44 L87.71 149.2 L85.86 147.9 L84.6 146.24 L84.21 144.22 L84.45 141.97 L84.77 139.75 L84.57 137.77 L83.59 136.03 L82.05 134.41 L80.55 132.72 L79.69 130.84 L79.76 128.77 L80.49 126.63 L81.28 124.53 L81.51 122.55 L80.91 120.64 L79.74 118.73 L78.61 116.77 L78.14 114.77 L78.58 112.78 L79.64 110.79 L80.7 108.81 L81.14 106.82 L80.7 104.84 L79.64 102.85 L78.58 100.87 L78.14 98.88 L78.58 96.9 L79.64 94.91 L80.7 92.93 L81.14 90.95 L80.7 88.96 L79.64 86.98 L78.58 84.99 L78.14 83.01 L78.58 81.02 L79.64 79.04 L80.7 77.05 L81.14 75.07 L80.7 73.08 L79.64 71.1 L78.58 69.11 L78.14 67.13 L78.58 65.14Z" fill="none" stroke="#2a2f36" stroke-opacity=".75" stroke-width="1"/><g fill="#2a2f36" opacity=".7"><circle cx="83.61" cy="61.51" r=".9"/><circle cx="99.49" cy="61.51" r=".9"/><circle cx="115.36" cy="61.51" r=".9"/><circle cx="131.24" cy="61.51" r=".9"/><circle cx="147.12" cy="61.51" r=".9"/><circle cx="163" cy="61.51" r=".9"/><circle cx="178.01" cy="65.67" r=".9"/><circle cx="178.01" cy="81.55" r=".9"/><circle cx="178.01" cy="97.43" r=".9"/><circle cx="178.01" cy="113.3" r=".9"/><circle cx="176.73" cy="129.4" r=".9"/><circle cx="172.13" cy="144.95" r=".9"/><circle cx="164.09" cy="159.04" r=".9"/><circle cx="153.14" cy="170.98" r=".9"/><circle cx="140.08" cy="180.48" r=".9"/><circle cx="124.35" cy="184.99" r=".9"/><circle cx="110.38" cy="176.89" r=".9"/><circle cx="98.09" cy="166.39" r=".9"/><circle cx="88.23" cy="153.52" r=".9"/><circle cx="81.57" cy="138.72" r=".9"/><circle cx="78.37" cy="122.84" r=".9"/><circle cx="77.99" cy="106.82" r=".9"/><circle cx="77.99" cy="90.95" r=".9"/><circle cx="77.99" cy="75.07" r=".9"/></g><g clip-path="url(#c12)"><ellipse cx="98" cy="70" rx="66" ry="52" fill="url(#r11)"/></g><rect x="37.4" y="132.6" width="183.2" height="6" rx="3" fill="#11141a" opacity=".5"/><rect x="36.4" y="129.6" width="183.2" height="6.8" rx="3.4" fill="url(#l13)" stroke="#11141a" stroke-width="1.4"/><rect x="39.4" y="130.8" width="177.2" height="1.1" rx=".5" fill="#ffffff" opacity=".85"/><path d="M74 134.6h14" stroke="#2a2f36" stroke-opacity=".45" stroke-width="2.2" stroke-dasharray=".8 1.2"/><path d="M168 134.6h14" stroke="#2a2f36" stroke-opacity=".45" stroke-width="2.2" stroke-dasharray=".8 1.2"/><rect x="66" y="126" width="4" height="14" rx="1.2" fill="url(#l16)" stroke="#2a2f36" stroke-width=".8"/><rect x="56.7" y="103.6" width="10.5" height="64" rx="3" fill="#11141a" opacity=".5"/><rect x="55.5" y="101" width="10.5" height="64" rx="3" fill="url(#l14)" stroke="#2a2f36" stroke-width=".9"/><path d="M58.65 105V161M62.85 105V161" stroke="#2a2f36" stroke-opacity=".35" stroke-width=".7"/><rect x="45.4" y="106.1" width="10.5" height="59" rx="3" fill="#11141a" opacity=".5"/><rect x="44.2" y="103.5" width="10.5" height="59" rx="3" fill="url(#l14)" stroke="#2a2f36" stroke-width=".9"/><path d="M47.35 107.5V158.5M51.55 107.5V158.5" stroke="#2a2f36" stroke-opacity=".35" stroke-width=".7"/><ellipse cx="45.25" cy="133" rx="7.88" ry="29.5" fill="url(#r15)" stroke="#2a2f36" stroke-width=".9"/><ellipse cx="45.25" cy="133" rx="6.14" ry="23.01" fill="none" stroke="#2a2f36" stroke-opacity=".5" stroke-width=".7"/><ellipse cx="44.75" cy="132.3" rx="6.14" ry="23.01" fill="none" stroke="#ffffff" stroke-opacity=".5" stroke-width=".5"/><ellipse cx="45.25" cy="133" rx="4.41" ry="16.52" fill="none" stroke="#2a2f36" stroke-opacity=".5" stroke-width=".7"/><ellipse cx="44.75" cy="132.3" rx="4.41" ry="16.52" fill="none" stroke="#ffffff" stroke-opacity=".5" stroke-width=".5"/><ellipse cx="45.25" cy="133" rx="2.21" ry="5.9" fill="url(#l17)" stroke="#2a2f36" stroke-width=".6"/><rect x="36.4" y="130" width="7" height="6" rx="2" fill="url(#l13)" stroke="#2a2f36" stroke-width=".8"/><rect x="186" y="126" width="4" height="14" rx="1.2" fill="url(#l18)" stroke="#2a2f36" stroke-width=".8"/><rect x="191.2" y="103.6" width="10.5" height="64" rx="3" fill="#11141a" opacity=".5"/><rect x="190" y="101" width="10.5" height="64" rx="3" fill="url(#l14)" stroke="#2a2f36" stroke-width=".9"/><path d="M193.15 105V161M197.35 105V161" stroke="#2a2f36" stroke-opacity=".35" stroke-width=".7"/><rect x="202.5" y="106.1" width="10.5" height="59" rx="3" fill="#11141a" opacity=".5"/><rect x="201.3" y="103.5" width="10.5" height="59" rx="3" fill="url(#l14)" stroke="#2a2f36" stroke-width=".9"/><path d="M204.45 107.5V158.5M208.65 107.5V158.5" stroke="#2a2f36" stroke-opacity=".35" stroke-width=".7"/><ellipse cx="210.75" cy="133" rx="7.88" ry="29.5" fill="url(#r15)" stroke="#2a2f36" stroke-width=".9"/><ellipse cx="210.75" cy="133" rx="6.14" ry="23.01" fill="none" stroke="#2a2f36" stroke-opacity=".5" stroke-width=".7"/><ellipse cx="210.25" cy="132.3" rx="6.14" ry="23.01" fill="none" stroke="#ffffff" stroke-opacity=".5" stroke-width=".5"/><ellipse cx="210.75" cy="133" rx="4.41" ry="16.52" fill="none" stroke="#2a2f36" stroke-opacity=".5" stroke-width=".7"/><ellipse cx="210.25" cy="132.3" rx="4.41" ry="16.52" fill="none" stroke="#ffffff" stroke-opacity=".5" stroke-width=".5"/><ellipse cx="210.75" cy="133" rx="2.21" ry="5.9" fill="url(#l19)" stroke="#2a2f36" stroke-width=".6"/><rect x="212.6" y="130" width="7" height="6" rx="2" fill="url(#l13)" stroke="#2a2f36" stroke-width=".8"/><path d="M151.04 99.26A31 31 0 1 0 159 121H131" fill="none" stroke="#11141a" stroke-opacity=".6" stroke-width="16" transform="translate(1.8 2.8)"/><path d="M151.04 99.26A31 31 0 1 0 159 121H131" fill="none" stroke="#2a2f36" stroke-width="15.4"/><path d="M151.04 99.26A31 31 0 1 0 159 121H131" fill="none" stroke="#6e7681" stroke-width="13" transform="translate(.9 .9)"/><path d="M151.04 99.26A31 31 0 1 0 159 121H131" fill="none" stroke="url(#l20)" stroke-width="11.4"/><path d="M151.04 99.26A31 31 0 1 0 159 121H138.8" fill="none" stroke="#ffffff" stroke-opacity=".9" stroke-width="1.5" transform="translate(-3.9 -3.9)"/><path d="M151.04 99.26A31 31 0 1 0 159 121H138.8" fill="none" stroke="#2a2f36" stroke-opacity=".6" stroke-width="1.3" transform="translate(3.9 3.9)"/><g filter="url(#ds)" transform="translate(128 46) scale(0.85) translate(-128 -46)"><path d="M106 38L110 30L114 38Z" fill="url(#l21)" stroke="#2a2f36" stroke-width=".8"/><circle cx="110" cy="30" r="2" fill="url(#l21)" stroke="#2a2f36" stroke-width=".7"/><circle cx="109.3" cy="29.3" r=".7" fill="#ffffff" opacity=".9"/><path d="M115 38L119 26.5L123 38Z" fill="url(#l21)" stroke="#2a2f36" stroke-width=".8"/><circle cx="119" cy="26.5" r="2" fill="url(#l21)" stroke="#2a2f36" stroke-width=".7"/><circle cx="118.3" cy="25.8" r=".7" fill="#ffffff" opacity=".9"/><path d="M124 38L128 23L132 38Z" fill="url(#l21)" stroke="#2a2f36" stroke-width=".8"/><circle cx="128" cy="23" r="2.6" fill="url(#l21)" stroke="#2a2f36" stroke-width=".7"/><circle cx="127.3" cy="22.3" r=".7" fill="#ffffff" opacity=".9"/><path d="M133 38L137 26.5L141 38Z" fill="url(#l21)" stroke="#2a2f36" stroke-width=".8"/><circle cx="137" cy="26.5" r="2" fill="url(#l21)" stroke="#2a2f36" stroke-width=".7"/><circle cx="136.3" cy="25.8" r=".7" fill="#ffffff" opacity=".9"/><path d="M142 38L146 30L150 38Z" fill="url(#l21)" stroke="#2a2f36" stroke-width=".8"/><circle cx="146" cy="30" r="2" fill="url(#l21)" stroke="#2a2f36" stroke-width=".7"/><circle cx="145.3" cy="29.3" r=".7" fill="#ffffff" opacity=".9"/><rect x="106" y="37" width="44" height="8" rx="2" fill="url(#l21)" stroke="#2a2f36" stroke-width=".9"/><path d="M108 38.4H148" stroke="#ffffff" stroke-opacity=".8" stroke-width=".8"/><ellipse cx="128" cy="41" rx="4" ry="3" fill="url(#r22)" stroke="#2a2f36" stroke-width=".6"/><circle cx="127" cy="40" r=".9" fill="#fff"/></g><circle cx="100" cy="90" r="7.88" fill="#ffffff" opacity=".35" filter="url(#blur3)"/><path d="M100 79.5Q101.26 88.74 110.5 90Q101.26 91.26 100 100.5Q98.74 91.26 89.5 90Q98.74 88.74 100 79.5Z" fill="#ffffff"/><path d="M95.28 85.28L104.72 94.72M104.72 85.28L95.28 94.72" stroke="#ffffff" stroke-width=".7" stroke-linecap="round" opacity=".8"/><circle cx="186" cy="52" r="6.82" fill="#ffffff" opacity=".35" filter="url(#blur3)"/><path d="M186 42.9Q187.09 50.91 195.1 52Q187.09 53.09 186 61.1Q184.91 53.09 176.9 52Q184.91 50.91 186 42.9Z" fill="#ffffff"/><path d="M181.91 47.91L190.09 56.09M190.09 47.91L181.91 56.09" stroke="#ffffff" stroke-width=".7" stroke-linecap="round" opacity=".8"/><circle cx="128" cy="18" r="7.35" fill="#ffffff" opacity=".35" filter="url(#blur3)"/><path d="M128 8.2Q129.18 16.82 137.8 18Q129.18 19.18 128 27.8Q126.82 19.18 118.2 18Q126.82 16.82 128 8.2Z" fill="#ffffff"/><path d="M123.59 13.59L132.41 22.41M132.41 13.59L123.59 22.41" stroke="#ffffff" stroke-width=".7" stroke-linecap="round" opacity=".8"/></g><path d="M54 186.2Q128 204.2 202 186.2L202 207.2Q128 225.2 54 207.2Z" fill="#000" opacity=".45" transform="translate(0 4)" filter="url(#blur3)"/><path d="M60 191.2L36 196.2L45 205.2L34 215.2L62 214.2Z" fill="url(#l24)" stroke="#2a2f36" stroke-width=".9"/><path d="M196 191.2L220 196.2L211 205.2L222 215.2L194 214.2Z" fill="url(#l24)" stroke="#2a2f36" stroke-width=".9"/><path d="M54 207.2L64 215.2L61 203.2Z" fill="#30070c" stroke="#2a2f36" stroke-width=".6"/><path d="M202 207.2L192 215.2L195 203.2Z" fill="#30070c" stroke="#2a2f36" stroke-width=".6"/><path d="M54 186.2Q128 204.2 202 186.2L202 207.2Q128 225.2 54 207.2Z" fill="url(#l23)" stroke="#2a2f36" stroke-width="1"/><path d="M54 186.2Q128 204.2 202 186.2L202 207.2Q128 225.2 54 207.2Z" fill="url(#l25)"/><path d="M72 191.05q3 10 0 21" fill="none" stroke="#30070c" stroke-opacity=".7" stroke-width="1.6"/><path d="M74 191.05q3 10 0 21" fill="none" stroke="#fff" stroke-opacity=".18" stroke-width="1"/><path d="M184 191.05q-3 10 0 21" fill="none" stroke="#30070c" stroke-opacity=".7" stroke-width="1.6"/><path d="M186 191.05q-3 10 0 21" fill="none" stroke="#fff" stroke-opacity=".18" stroke-width="1"/><g clip-path="url(#c26)"><path d="M54 184.2Q128 202.2 202 184.2" fill="none" stroke="#11141a" stroke-opacity=".55" stroke-width="5"/><path d="M54 208.2Q128 226.2 202 208.2" fill="none" stroke="#000" stroke-opacity=".25" stroke-width="3"/></g><path d="M58 190.2Q128 207.7 198 190.2" fill="none" stroke="#fff" stroke-opacity=".35" stroke-width=".9"/><g fill="#11141a" opacity=".75" transform="translate(.6 1)"><rect x="126.4" y="199.2" width="3.2" height="12"/><rect x="124.3" y="199.2" width="7.4" height="1.7" rx=".5"/><rect x="124.3" y="209.5" width="7.4" height="1.7" rx=".5"/></g><g fill="#ffffff" opacity=".6" transform="translate(-.5 -.6)"><rect x="126.4" y="199.2" width="3.2" height="12"/><rect x="124.3" y="199.2" width="7.4" height="1.7" rx=".5"/><rect x="124.3" y="209.5" width="7.4" height="1.7" rx=".5"/></g><g fill="url(#l27)"><rect x="126.4" y="199.2" width="3.2" height="12"/><rect x="124.3" y="199.2" width="7.4" height="1.7" rx=".5"/><rect x="124.3" y="209.5" width="7.4" height="1.7" rx=".5"/></g></svg>